<svg width="733" height="206" viewBox="0 0 733 206" fill="none" xmlns="http://www.w3.org/2000/svg">
<path d="M58.6101 76.46L35.17 93.28L35.42 41L0 49.56L2.72009 73.74L3.3501 162.67L26.05 160.44L60.4701 162.67L84.1001 142.76V100.76L58.6101 76.46ZM49.12 145.74L35.12 144.44V101.85H50.1901L49.12 145.74Z" fill="#171717"/>
<path d="M172.12 135.32L174.72 75.97L154.44 79.14H114.07L90.8203 102.39V142.02L116.68 163.42L139.93 147.04L162.44 164.35L192.1 142.65L172.12 135.32ZM139.75 136.25H125.49L126.17 95.51H140.86L139.75 136.25Z" fill="#171717"/>
<path d="M223.05 56.4399L221.74 83.7899H242.42L238.14 97.1899L221.74 99.4199L221.81 136.26H267.05L217.09 165.47L186.58 144.26L186.51 99.5599L184.65 86.5799L223.05 56.4399Z" fill="#171717"/>
<path d="M288.44 56.4399L287.14 83.7899H307.81L303.53 97.1899L287.14 99.4199L287.21 136.26H332.44L282.49 165.47L251.98 144.26L251.91 99.5599L250.05 86.5799L288.44 56.4399Z" fill="#171717"/>
<path d="M312.91 49.3701L348.25 41.5601L349.19 161.56L316.63 160.63V73.7401L312.91 49.3701Z" fill="#171717"/>
<path d="M390.3 136.07L390.86 125.65H429V76.3501H389.75L357.93 92.7201L357 143.32L387.14 164.72L441.65 145.37V136.07H390.3ZM391.61 90.8601L400.17 94.2101V115.04L390.68 114.26L391.61 90.8601Z" fill="#171717"/>
<path d="M551.84 135.7L555.44 76.3501L535.16 79.5101H494.79L471.54 102.77V142.39L497.4 163.79L520.65 147.42L538.16 164.72L574.82 143.02L551.84 135.7ZM520.47 136.63H506.21L506.93 95.8501H521.62L520.47 136.63Z" fill="#171717"/>
<path d="M562.18 84.1201L594.42 76.3501L612.28 104.07L626.37 78.5301L649.95 79.3701L626.79 118.86L650.93 157.23L618.42 164.72L599.28 134.91L585.07 161.98L560.07 161.7L584.65 120.53L562.18 84.1201Z" fill="#171717"/>
<path d="M681.63 136.07L682.19 125.65H720.33V76.3501H681.07L649.26 92.7201L648.33 143.32L678.47 164.72L732.98 145.37V136.07H681.63ZM682.93 90.8501L691.49 94.2001V115.03L682 114.25L682.93 90.8501Z" fill="#171717"/>
</svg>
