<svg width="400" height="400" viewBox="0 0 400 400" fill="none" xmlns="http://www.w3.org/2000/svg">
<path d="M349.8 188.6C344 182.8 334.7 182.8 328.9 188.6C327.8 189.7 326.9 190.9 326.2 192.3L209.3 153.3L257.2 137.3C257.8 138.2 258.4 139 259.2 139.8C265 145.6 274.3 145.6 280.1 139.8C285.9 134 285.9 124.7 280.1 118.9C274.9 113.7 266.9 113.2 261.1 117.3L212 68.2C216.1 62.4 215.6 54.4 210.4 49.2C204.6 43.4 195.3 43.4 189.5 49.2C183.7 55 183.7 64.3 189.5 70.1C191.6 72.2 194.2 73.6 197 74.1V149.1L144.9 131.7C145.7 127.2 144.3 122.3 140.8 118.8C135 113 125.7 113 119.9 118.8C114.1 124.6 114.1 133.9 119.9 139.7C125.7 145.5 135 145.5 140.8 139.7C141.6 138.9 142.2 138.1 142.8 137.2L190.7 153.2L73.8 192.2C73.1 190.9 72.2 189.6 71.1 188.5C65.3 182.7 56 182.7 50.2 188.5C44.4 194.3 44.4 203.6 50.2 209.4C56 215.2 65.3 215.2 71.1 209.4C71.9 208.6 72.5 207.8 73.1 206.9L190.6 246.1L143.4 261.8C142.7 260.5 141.8 259.2 140.7 258.1C134.9 252.3 125.6 252.3 119.8 258.1C114 263.9 114 273.2 119.8 279C124.7 283.9 132.3 284.6 138 281.1L187.4 330.5C183.9 336.2 184.6 343.7 189.5 348.7C195.3 354.5 204.6 354.5 210.4 348.7C216.2 342.9 216.2 333.6 210.4 327.8C208.3 325.7 205.7 324.3 202.9 323.8V250.2L254.9 267.5C254.6 271.6 256 275.9 259.2 279C265 284.8 274.3 284.8 280.1 279C285.9 273.2 285.9 263.9 280.1 258.1C274.3 252.3 265 252.3 259.2 258.1C258.1 259.2 257.2 260.4 256.5 261.8L209.3 246.1L326.9 207C327.5 207.9 328.1 208.7 328.9 209.5C334.7 215.3 344 215.3 349.8 209.5C355.6 203.7 355.6 194.3 349.8 188.6ZM203 149.2V74.2C204.7 73.9 206.3 73.2 207.8 72.3L257.2 121.7C255.3 124.8 254.7 128.4 255.2 131.8L203 149.2ZM75.2 201.5C75.4 200.3 75.4 199.1 75.4 198L197 157.4V184.6C194.3 185.2 191.6 186.5 189.5 188.6C183.7 194.4 183.7 203.7 189.5 209.5C191.6 211.6 194.2 213 197 213.5V242.1L75.2 201.5ZM197 250.3V323.9C195 324.3 193.1 325.1 191.4 326.3L142.3 277.2C144.3 274.3 145.2 270.9 145 267.6L197 250.3ZM203 242.1V213.5C205.7 212.9 208.4 211.6 210.5 209.5C216.3 203.7 216.3 194.4 210.5 188.6C208.4 186.5 205.8 185.1 203 184.6V157.4L324.6 197.9C324.5 199.1 324.6 200.3 324.8 201.4L203 242.1Z" fill="black"/>
</svg>
