<svg width="1000" height="1000" viewBox="0 0 1000 1000" fill="none" xmlns="http://www.w3.org/2000/svg">
<path fill-rule="evenodd" clip-rule="evenodd" d="M480.623 168.48C472.276 165.295 464.45 160.339 457.724 153.614C432.172 128.061 432.172 86.633 457.724 61.0807C483.277 35.5284 524.705 35.5284 550.257 61.0807C569.988 80.8113 574.483 110.008 563.743 134.052L675.571 245.88C699.615 235.14 728.812 239.635 748.542 259.366C774.095 284.918 774.095 326.346 748.542 351.899C722.99 377.451 681.562 377.451 656.009 351.899C654.474 350.364 653.032 348.771 651.681 347.129L577.887 371.727L849.966 462.42C851.317 460.777 852.759 459.185 854.294 457.65C879.846 432.098 921.275 432.098 946.827 457.65C972.379 483.203 972.379 524.631 946.827 550.183C921.275 575.735 879.846 575.735 854.294 550.183C852.759 548.648 851.317 547.056 849.966 545.414L577.887 636.107L651.681 660.705C653.032 659.062 654.475 657.47 656.009 655.935C681.562 630.383 722.99 630.383 748.542 655.935C774.095 681.487 774.095 722.916 748.542 748.468C722.99 774.02 681.562 774.02 656.009 748.468C643.956 736.415 637.589 720.829 636.907 705.044L527.359 668.528L527.359 839.353C535.706 842.539 543.532 847.494 550.257 854.22C575.81 879.772 575.81 921.201 550.257 946.753C524.705 972.305 483.277 972.305 457.724 946.753C437.994 927.022 433.499 897.826 444.239 873.782L332.411 761.954C308.367 772.694 279.17 768.199 259.44 748.468C233.887 722.916 233.887 681.487 259.44 655.935C284.992 630.383 326.42 630.383 351.972 655.935C353.507 657.47 354.95 659.062 356.3 660.705L430.094 636.107L158.016 545.414C156.665 547.056 155.222 548.648 153.688 550.183C128.135 575.735 86.7069 575.735 61.1547 550.183C35.6024 524.631 35.6024 483.203 61.1547 457.65C86.7069 432.098 128.135 432.098 153.688 457.65C155.222 459.185 156.665 460.777 158.016 462.42L430.094 371.727L356.301 347.129C354.95 348.771 353.507 350.364 351.972 351.899C326.42 377.451 284.992 377.451 259.44 351.899C233.887 326.346 233.887 284.918 259.44 259.366C284.992 233.813 326.42 233.813 351.972 259.366C364.025 271.419 370.393 287.004 371.075 302.789L480.623 339.305V168.48ZM365.458 728.906C368.85 721.313 370.723 713.205 371.075 705.044L480.623 668.528V839.354C479.501 839.782 478.388 840.242 477.286 840.734L365.458 728.906ZM642.524 278.927C639.132 286.521 637.259 294.628 636.907 302.789L527.359 339.305V168.48C528.481 168.052 529.594 167.592 530.696 167.099L642.524 278.927ZM480.623 442.784V404.148L181.318 503.917L480.623 603.685V565.049C472.276 561.864 464.45 556.909 457.724 550.183C432.172 524.631 432.172 483.202 457.724 457.65C464.45 450.924 472.276 445.969 480.623 442.784ZM527.359 442.784V404.148L826.664 503.917L527.359 603.685V565.049C535.706 561.864 543.532 556.909 550.257 550.183C575.81 524.631 575.81 483.202 550.257 457.65C543.532 450.924 535.706 445.969 527.359 442.784Z" fill="#171717"/>
</svg>
