<svg width="82" height="40" viewBox="0 0 82 40" fill="none" xmlns="http://www.w3.org/2000/svg">
<rect x="0.5" y="0.5" width="39" height="39" rx="1.5" fill="#2A2A2A" stroke="#2E2E2E"/>
<path fill-rule="evenodd" clip-rule="evenodd" d="M20.5795 19.9883L23.182 14.795L21.5057 13.955L18.4832 19.9864L21.505 26.0435L23.1828 25.2065L20.5795 19.9883Z" fill="#B2B2B2"/>
<path fill-rule="evenodd" clip-rule="evenodd" d="M6.93359 5.9375H20.9375V10.625H19.0625V7.8125H8.80859V32.1875H19.0625V29.375H20.9375V34.0625H6.93359V5.9375Z" fill="#B2B2B2"/>
<path fill-rule="evenodd" clip-rule="evenodd" d="M31.25 10.625H22.8125V8.75H33.125V31.25H22.8125V29.375H31.25V10.625Z" fill="#B2B2B2"/>
<rect x="42.5" y="0.5" width="39" height="39" rx="1.5" fill="#2A2A2A" stroke="#2E2E2E"/>
<path fill-rule="evenodd" clip-rule="evenodd" d="M65.1705 19.9883L62.568 14.795L64.2443 13.955L67.2668 19.9864L64.245 26.0435L62.5672 25.2065L65.1705 19.9883Z" fill="#B2B2B2"/>
<path fill-rule="evenodd" clip-rule="evenodd" d="M48.875 5.9375H66.6875V10.625H64.8125V7.8125H50.75V32.1875H64.8125V29.375H66.6875V34.0625H48.875V5.9375Z" fill="#B2B2B2"/>
<path fill-rule="evenodd" clip-rule="evenodd" d="M73.3086 10.625H68.6797V8.75H75.1836V31.25H68.6797V29.375H73.3086V10.625Z" fill="#B2B2B2"/>
</svg>
