<svg width="40" height="40" viewBox="0 0 40 40" fill="none" xmlns="http://www.w3.org/2000/svg">
<rect x="0.5" y="0.5" width="39" height="39" rx="1.5" fill="#2A2A2A" stroke="#2E2E2E"/>
<path fill-rule="evenodd" clip-rule="evenodd" d="M6.875 19.0625H16.1328V20.9375H8.75V26.4453H23.8672V32.1875H6.875V30.3125H21.9922V28.3203H6.875V19.0625Z" fill="#B2B2B2"/>
<path fill-rule="evenodd" clip-rule="evenodd" d="M6.875 7.8125H27.4707V9.6875H8.75V11.5625H33.125V20.9375H23.8086V19.0625H31.25V13.4375H6.875V7.8125Z" fill="#B2B2B2"/>
<path fill-rule="evenodd" clip-rule="evenodd" d="M20.0586 23.1055C21.7737 23.1055 23.1641 21.7151 23.1641 20C23.1641 18.2849 21.7737 16.8945 20.0586 16.8945C18.3435 16.8945 16.9531 18.2849 16.9531 20C16.9531 21.7151 18.3435 23.1055 20.0586 23.1055ZM20.0586 24.7461C22.6798 24.7461 24.8047 22.6212 24.8047 20C24.8047 17.3788 22.6798 15.2539 20.0586 15.2539C17.4374 15.2539 15.3125 17.3788 15.3125 20C15.3125 22.6212 17.4374 24.7461 20.0586 24.7461Z" fill="#B2B2B2"/>
</svg>
