<svg width="40" height="40" viewBox="0 0 40 40" fill="none" xmlns="http://www.w3.org/2000/svg">
<rect x="0.5" y="0.5" width="39" height="39" rx="1.5" fill="#2A2A2A" stroke="#2E2E2E"/>
<path fill-rule="evenodd" clip-rule="evenodd" d="M25.625 33.125V29.375H6.875V21.875H33.125V23.75H8.75V27.5H27.5V33.125H25.625Z" fill="#B2B2B2"/>
<path fill-rule="evenodd" clip-rule="evenodd" d="M10.625 8.75L23.75 8.75L23.75 12.5L6.875 12.5L6.875 14.375L25.625 14.375L25.625 6.875L10.625 6.875L10.625 8.75Z" fill="#B2B2B2"/>
<path d="M14.375 17.1875H18.125V19.0625H14.375V17.1875Z" fill="#B2B2B2"/>
<path d="M21.875 17.1875H25.625V19.0625H21.875V17.1875Z" fill="#B2B2B2"/>
<path d="M29.375 17.1875H33.125V20H31.25V19.0625H29.375V17.1875Z" fill="#B2B2B2"/>
<path d="M10.625 19.0625L6.875 19.0625L6.875 16.25L8.75 16.25L8.75 17.1875L10.625 17.1875L10.625 19.0625Z" fill="#B2B2B2"/>
</svg>
