<svg width="40" height="40" viewBox="0 0 40 40" fill="none" xmlns="http://www.w3.org/2000/svg">
<rect x="0.5" y="0.5" width="39" height="39" rx="1.5" fill="#2A2A2A" stroke="#2E2E2E"/>
<g clip-path="url(#clip0)">
<path fill-rule="evenodd" clip-rule="evenodd" d="M20.0114 5.75885L29.0631 11.5949L28.0471 13.1707L20.0134 7.99111L12.0138 13.1698L10.9948 11.5958L20.0114 5.75885Z" fill="#B2B2B2"/>
<path fill-rule="evenodd" clip-rule="evenodd" d="M19.9724 13.0859C26.5955 13.0859 32.3158 16.9516 35 22.5497C33.9099 24.8233 32.3189 26.8112 30.3701 28.3703L32.0677 31.3107L30.4439 32.2482L28.8355 29.4623C26.5282 30.9151 23.8394 31.8175 20.9534 31.9852V35.0108H19.0784V31.99C16.2259 31.8391 13.5637 30.9706 11.2691 29.5616L9.718 32.2482L8.0942 31.3107L9.72376 28.4882C7.70698 26.9119 6.06266 24.881 4.94484 22.5497C7.62907 16.9516 13.3493 13.0859 19.9724 13.0859ZM19.9724 30.1386C14.4227 30.1386 9.58395 27.0801 7.0556 22.5497C9.58394 18.0194 14.4227 14.9609 19.9724 14.9609C25.5222 14.9609 30.3609 18.0194 32.8893 22.5497C30.3609 27.0801 25.5222 30.1386 19.9724 30.1386Z" fill="#B2B2B2"/>
<path fill-rule="evenodd" clip-rule="evenodd" d="M24.9633 19.9414H15.3875V18.0664H24.9633V19.9414Z" fill="#B2B2B2"/>
<path fill-rule="evenodd" clip-rule="evenodd" d="M27.3828 23.6914H12.9688V21.8164H27.3828V23.6914Z" fill="#B2B2B2"/>
<path fill-rule="evenodd" clip-rule="evenodd" d="M24.1574 27.4414H16.1944V25.5664H24.1574V27.4414Z" fill="#B2B2B2"/>
</g>
<defs>
<clipPath id="clip0">
<rect width="30" height="30" fill="white" transform="translate(5 5)"/>
</clipPath>
</defs>
</svg>
