<svg width="40" height="40" viewBox="0 0 40 40" fill="none" xmlns="http://www.w3.org/2000/svg">
<rect x="0.5" y="0.5" width="39" height="39" rx="1.5" fill="#2A2A2A" stroke="#2E2E2E"/>
<g clip-path="url(#clip0)">
<path fill-rule="evenodd" clip-rule="evenodd" d="M20.0114 5.75886L29.0631 11.5949L28.0471 13.1707L20.0134 7.99112L12.0138 13.1698L10.9948 11.5958L20.0114 5.75886Z" fill="#B2B2B2"/>
<path fill-rule="evenodd" clip-rule="evenodd" d="M7.0552 22.5497C9.58355 27.0801 14.4223 30.1385 19.972 30.1385C25.5218 30.1385 30.3605 27.0801 32.8889 22.5497C30.3605 18.0194 25.5218 14.9609 19.972 14.9609C14.4223 14.9609 9.58355 18.0194 7.0552 22.5497ZM34.9996 22.5497C32.3154 16.9516 26.5951 13.0859 19.972 13.0859C13.3489 13.0859 7.62867 16.9516 4.94444 22.5497C7.62867 28.1479 13.3489 32.0135 19.972 32.0135C26.5951 32.0135 32.3154 28.1479 34.9996 22.5497Z" fill="#B2B2B2"/>
<path fill-rule="evenodd" clip-rule="evenodd" d="M19.078 35.0108V30.5494H20.953V35.0108H19.078Z" fill="#B2B2B2"/>
<path fill-rule="evenodd" clip-rule="evenodd" d="M8.09408 31.3107L10.3642 27.3786L11.988 28.3161L9.71788 32.2482L8.09408 31.3107Z" fill="#B2B2B2"/>
<path fill-rule="evenodd" clip-rule="evenodd" d="M32.0674 31.3107L29.7973 27.3786L28.1735 28.3161L30.4436 32.2482L32.0674 31.3107Z" fill="#B2B2B2"/>
<path fill-rule="evenodd" clip-rule="evenodd" d="M20.0111 25.622C21.7205 25.622 23.1062 24.2363 23.1062 22.5269C23.1062 20.8175 21.7205 19.4318 20.0111 19.4318C18.3018 19.4318 16.9161 20.8175 16.9161 22.5269C16.9161 24.2363 18.3018 25.622 20.0111 25.622ZM20.0111 27.497C22.756 27.497 24.9812 25.2718 24.9812 22.5269C24.9812 19.782 22.756 17.5568 20.0111 17.5568C17.2662 17.5568 15.0411 19.782 15.0411 22.5269C15.0411 25.2718 17.2662 27.497 20.0111 27.497Z" fill="#B2B2B2"/>
</g>
<defs>
<clipPath id="clip0">
<rect width="30" height="30" fill="white" transform="translate(5 5)"/>
</clipPath>
</defs>
</svg>
