<svg width="82" height="40" viewBox="0 0 82 40" fill="none" xmlns="http://www.w3.org/2000/svg">
<rect x="0.5" y="0.5" width="39" height="39" rx="1.5" fill="#2A2A2A" stroke="#2E2E2E"/>
<g clip-path="url(#clip0)">
<path fill-rule="evenodd" clip-rule="evenodd" d="M20.0114 5.75885L29.0631 11.5949L28.0471 13.1707L20.0134 7.99111L12.0138 13.1698L10.9948 11.5958L20.0114 5.75885Z" fill="#B2B2B2"/>
<path fill-rule="evenodd" clip-rule="evenodd" d="M25.6833 14.3172L34.8534 21.3682L25.6833 35.393V32.2461H26.6208C25.6833 32.2461 25.6833 32.246 25.6833 32.246V14.3172ZM27.5583 29.0991L32.3335 21.7959L27.5583 18.1241V29.0991ZM24.0121 15.629L18.8239 22.1732L23.608 26.4257L16.3283 34.6243L14.9262 33.3793L20.9617 26.5821L16.2536 22.3971L22.5428 14.4642L24.0121 15.629ZM6.87472 14.8449L17.3896 16.6497L8.74972 27.4361V34.2383H6.87472V29.777L6.3758 30.3998L4.91238 29.2276L6.87472 26.7778V14.8449ZM8.74972 24.4369L13.938 17.9597L8.74972 17.0691V24.4369Z" fill="#B2B2B2"/>
</g>
<rect x="42.5" y="0.5" width="39" height="39" rx="1.5" fill="#2A2A2A" stroke="#2E2E2E"/>
<g clip-path="url(#clip1)">
<path fill-rule="evenodd" clip-rule="evenodd" d="M62.0114 5.75885L71.0631 11.5949L70.0471 13.1707L62.0134 7.99111L54.0138 13.1698L52.9948 11.5958L62.0114 5.75885Z" fill="#B2B2B2"/>
<path fill-rule="evenodd" clip-rule="evenodd" d="M48.875 14.3588L56.303 16.8622L55.7042 18.639L50.75 16.9693V21.0544L54.3197 22.1253L53.7809 23.9213L50.75 23.012V35.9375H48.875V14.3588ZM60.125 14.375V33.125H63.875V35H58.25V14.375H60.125ZM67.5664 14.3757L76.96 34.1556L75.2663 34.96L73.4844 31.2079V31.25H69.4414V35H67.5664V31.25H65.6914V29.375H67.5664V14.3757ZM69.4414 29.375H72.6139L69.4414 22.6946V29.375Z" fill="#B2B2B2"/>
</g>
<defs>
<clipPath id="clip0">
<rect width="30" height="30" fill="white" transform="translate(5 5)"/>
</clipPath>
<clipPath id="clip1">
<rect width="30" height="30" fill="white" transform="translate(47 5)"/>
</clipPath>
</defs>
</svg>
