<svg width="40" height="40" viewBox="0 0 40 40" fill="none" xmlns="http://www.w3.org/2000/svg">
<rect x="0.5" y="0.5" width="39" height="39" rx="1.5" fill="#2A2A2A" stroke="#2E2E2E"/>
<path fill-rule="evenodd" clip-rule="evenodd" d="M23.2226 20C23.2226 21.7798 21.7797 23.2227 19.9999 23.2227C18.2201 23.2227 16.7772 21.7798 16.7772 20C16.7772 18.2202 18.2201 16.7774 19.9999 16.7774C21.7797 16.7774 23.2226 18.2202 23.2226 20ZM21.3476 20C21.3476 20.7443 20.7442 21.3477 19.9999 21.3477C19.2556 21.3477 18.6522 20.7443 18.6522 20C18.6522 19.2557 19.2556 18.6524 19.9999 18.6524C20.7442 18.6524 21.3476 19.2557 21.3476 20Z" fill="#B2B2B2"/>
<path fill-rule="evenodd" clip-rule="evenodd" d="M19.9999 9.7461C19.1578 9.7461 18.3395 9.8476 17.5564 10.039L16.5534 7.28326L14.7915 7.92455L15.7836 10.6503C14.1831 11.3732 12.8015 12.4949 11.7653 13.8887L9.27347 12.45L8.33597 14.0738L10.7886 15.4899C10.1209 16.8509 9.746 18.3817 9.746 20C9.746 20.2025 9.75187 20.4037 9.76346 20.6033L7.01789 21.0875L7.34348 22.934L10.0425 22.4581C10.4766 24.2225 11.3674 25.8073 12.5824 27.0799L10.8421 29.154L12.2784 30.3592L13.9954 28.3129C15.4181 29.3423 17.1154 30.0154 18.9565 30.2015V32.8751H20.8315V30.2207C22.6778 30.0725 24.386 29.4353 25.8267 28.4387L27.5646 30.5098L29.0009 29.3046L27.2651 27.236C28.5053 25.9908 29.4274 24.4288 29.8995 22.6819L32.6383 23.1648L32.9639 21.3183L30.2203 20.8345C30.2425 20.5593 30.2538 20.281 30.2538 20C30.2538 18.4693 29.9184 17.017 29.3171 15.7124L31.8037 14.2768L30.8662 12.653L28.3794 14.0887C27.3777 12.6713 26.0254 11.5193 24.4488 10.7589L25.4512 8.00471L23.6893 7.36342L22.6921 10.1032C21.8342 9.87035 20.9316 9.7461 19.9999 9.7461ZM19.9999 28.3789C24.6274 28.3789 28.3788 24.6276 28.3788 20C28.3788 15.3725 24.6274 11.6211 19.9999 11.6211C15.3724 11.6211 11.621 15.3725 11.621 20C11.621 24.6276 15.3724 28.3789 19.9999 28.3789Z" fill="#B2B2B2"/>
</svg>
