<?xml version="1.0" encoding="UTF-8"?>
<svg width="74px" height="24px" viewBox="0 0 74 24" version="1.1" xmlns="http://www.w3.org/2000/svg" xmlns:xlink="http://www.w3.org/1999/xlink" style="background: #262626;">
    <!-- Generator: Sketch 62 (91390) - https://sketch.com -->
    <title>Alt Copy</title>
    <desc>Created with Sketch.</desc>
    <g id="Alt-Copy" stroke="none" stroke-width="1" fill="none" fill-rule="evenodd">
        <rect fill="#262626" x="0" y="0" width="74" height="24"></rect>
        <g id="Group-2" transform="translate(33.000000, 3.000000)" fill="#FF5252">
            <polygon id="Combined-Shape" points="24 15 23 18 20 18 21 15"></polygon>
            <polygon id="Combined-Shape" points="19 15 18 18 15 18 16 15"></polygon>
            <polygon id="Combined-Shape" points="14 15 13 18 10 18 11 15"></polygon>
            <polygon id="Combined-Shape" points="9 15 8 18 5 18 6 15"></polygon>
            <polygon id="Combined-Shape" points="5 12 3 18 0 18 4 6 5 6 5 12"></polygon>
            <polygon id="Combined-Shape" points="7.10542736e-15 12 2 6 1 6 0 6 7.10542736e-15 12"></polygon>
            <polygon id="Combined-Shape" points="27 15 27 18 25 18 26 15"></polygon>
            <polygon id="Combined-Shape" points="13 12 9 1.77635684e-15 12 0 16 12 13 12"></polygon>
            <polygon id="Combined-Shape" points="18 12 14 1.77635684e-15 17 0 21 12 18 12"></polygon>
            <polygon id="Combined-Shape" points="23 12 19 1.77635684e-15 22 0 26 12 23 12"></polygon>
            <polygon id="Combined-Shape" points="28 12 24 1.77635684e-15 27 0 31 12 28 12"></polygon>
            <polygon id="Combined-Shape" points="33 12 29 1.77635684e-15 32 0 36 12 33 12"></polygon>
            <polygon id="Combined-Shape" points="36 6 34 -2.48689958e-14 35 -2.48689958e-14 36 -2.48689958e-14 36 6 36 6"></polygon>
            <polygon id="Combined-Shape" points="11 12 9 12 9 6"></polygon>
        </g>
        <text id="ALT" font-family="SpaceMono-Italic, Space Mono" font-size="12" font-style="italic" font-weight="normal" letter-spacing="0.545454562" fill="#FF5252">
            <tspan x="5" y="16">A</tspan>
            <tspan x="12.8894546" y="16" letter-spacing="-0.55">LT</tspan>
        </text>
    </g>
</svg>