<?xml version="1.0" encoding="UTF-8"?>
<svg width="92px" height="24px" viewBox="0 0 92 24" version="1.1" xmlns="http://www.w3.org/2000/svg" xmlns:xlink="http://www.w3.org/1999/xlink" style="background: #262626;">
    <!-- Generator: Sketch 62 (91390) - https://sketch.com -->
    <title>Bake</title>
    <desc>Created with Sketch.</desc>
    <g id="Bake" stroke="none" stroke-width="1" fill="none" fill-rule="evenodd">
        <rect fill="#262626" x="0" y="0" width="92" height="24"></rect>
        <polygon id="Combined-Shape" fill="#FFD740" points="67.5 15.5 70 18 76 12 70 6 67.5 8.5 71 12"></polygon>
        <polygon id="Combined-Shape" fill="#FFD740" points="74.5 15.5 77 18 83 12 77 6 74.5 8.5 78 12"></polygon>
        <polygon id="Rectangle-7" fill="#FFD740" points="69 12 63 18 57 12 63 6"></polygon>
        <polygon id="f(x)" fill="#FFD740" points="12.9825573 10.6419091 11.1495573 10.6419091 11.1495573 9.08190908 13.3205573 9.08190908 13.731 7.226 13.939 6.706 14.3095 6.2835 14.7905 6.004 15.33 5.9 17.618 5.9 17.618 7.46 15.668 7.46 15.239 7.85 14.9585573 9.08190908 17.1555573 9.08190908 17.1555573 10.6419091 14.6205573 10.6419091 13.0501099 17.5189213 12.5171099 18.4354213 11.6721099 18.7149213 10.9376099 18.5394213 10.3851099 18.0389213 9.56610985 16.7259213 10.8271099 15.9589213 11.3991099 16.9469213 11.5551099 16.9209213 12.9825573 10.6419091"></polygon>
        <polygon id="Combined-Shape" fill="#FFD740" points="49 11 42 11 42 13 49 13 49 17 53 12 49 7"></polygon>
        <polygon id="Path" fill="#FFD740" points="23.124 16.39 23.124 18.028 22.071 18.028 20.6215 17.7745 19.4515 17.0465 18.6715 15.87 18.392 14.271 18.548 12.932 19.263 9.578 20.0365 7.394 21.2455 5.938 22.8575 5.1255 24.84 4.872 25.412 4.872 25.412 6.51 24.658 6.51 22.162 7.316 20.888 9.864 20.225 13.036 20.108 14.063 20.3355 15.2135 20.914 15.922 21.6875 16.286 22.5 16.39 23.124 16.39"></polygon>
        <polygon id="Path" fill="#FFD740" points="28.657 11.945 29.333 13.544 29.489 13.544 29.996 12.608 31.296 13.284 30.88 14.116 29.255 15.182 28.3645 14.935 27.799 14.142 27.37 13.141 25.225 15.156 24.12 13.999 26.72 11.568 26.07 10.021 25.914 10.021 25.29 11.022 24.042 10.216 24.666 9.254 26.174 8.37 27.578 9.384 27.994 10.372 30.048 8.448 31.153 9.605 28.657 11.945"></polygon>
        <polygon id="Path" fill="#FFD740" points="32.656 6.51 32.656 4.872 33.709 4.872 35.1585 5.1255 36.3285 5.8535 37.1085 7.03 37.388 8.629 37.232 9.968 36.517 13.322 35.7435 15.506 34.5345 16.962 32.9225 17.7745 30.94 18.028 30.368 18.028 30.368 16.39 31.122 16.39 33.618 15.584 34.892 13.036 35.555 9.864 35.672 8.837 35.4445 7.6865 34.866 6.978 34.0925 6.614 33.28 6.51 32.656 6.51"></polygon>
    </g>
</svg>