<?xml version="1.0" encoding="UTF-8"?>
<svg width="44px" height="24px" viewBox="0 0 44 24" version="1.1" xmlns="http://www.w3.org/2000/svg" xmlns:xlink="http://www.w3.org/1999/xlink" style="background: #262626;">
    <!-- Generator: Sketch 62 (91390) - https://sketch.com -->
    <title>Help</title>
    <desc>Created with Sketch.</desc>
    <g id="Help" stroke="none" stroke-width="1" fill="none" fill-rule="evenodd">
        <rect fill="#262626" x="0" y="0" width="44" height="24"></rect>
        <polygon id="Combined-Shape" fill="#FFD740" points="26 15 27 22 25 23 23 19 24 17 23 18 19 20 15 18 16 15 18 13 24 11 19 12 16 13 14 16 10 15 9 9 12 4 17 2 20 3 16 5 20 4 25 3 30 4 28 5 33 5 35 9 34 10 32 9 35 12 34 14 33 15 33 16 31 18 28 19 27 16 30 14"></polygon>
        <polygon id="Path-14" fill="#FFD740" points="2 2 5 7 5 5 8 7 5 2 5 4"></polygon>
        <polygon id="Path-14" fill="#FFD740" points="37 8 42 5 40 5 42 2 37 5 39 5"></polygon>
        <polygon id="Path-14" fill="#FFD740" points="35 17 38 22 38 20 41 22 38 17 38 19"></polygon>
        <polygon id="Path-14" fill="#FFD740" points="4 22 7 17 7 19 10 17 7 22 7 20"></polygon>
    </g>
</svg>