<?xml version="1.0" encoding="UTF-8"?>
<svg width="60px" height="24px" viewBox="0 0 60 24" version="1.1" xmlns="http://www.w3.org/2000/svg" xmlns:xlink="http://www.w3.org/1999/xlink" style="background: #262626;">
    <!-- Generator: Sketch 62 (91390) - https://sketch.com -->
    <title>Rename</title>
    <desc>Created with Sketch.</desc>
    <g id="Rename" stroke="none" stroke-width="1" fill="none" fill-rule="evenodd">
        <rect fill="#262626" x="0" y="0" width="60" height="24"></rect>
        <polygon id="Path" fill="#FFD740" points="37.5744112 11.5039249 35.95 11.93 35.575 11.2925 34.69 11.06 34.3525 11.0975 34.03 11.21 33.7825 11.4125 33.685 11.72 34.045 12.185 35.275 12.44 36.85 13.0325 37.2687371 13.5417523"></polygon>
        <polygon id="Combined-Shape" fill="#FFD740" points="34.1684286 14 33 14 33 15.00625 33.07 15.1475 34.21 15.5 35.125 15.335 35.515 14.75 35.215 14.2475"></polygon>
        <polygon id="Combined-Shape" fill="#FFD740" points="32.6300038 17 32.5525 16.97 31.5775 16.37 31 15.575 30.79 14.75 32.65 14.3 33.07 15.1475 34.21 15.5 35.125 15.335 35.515 14.75 35.215 14.2475 34.105 13.985 32.3875 13.37 31.75 11.975 32.0125 10.85 32.71 10.025 33.7225 9.5225 34.93 9.35 36.235 9.56 37.09 10.085 37.5775 10.7675 37.655289 10.9647395 38.5499999 5 8 5 8 17 12.0209435 17 14.22 6.5 16.2 6.5 15.285 10.79 18.285 10.79 19.2 6.5 21.18 6.5 18.966085 17 23.5890726 17 22.62 16.4375 21.93 15.5 21.675 14.24 22.035 12.1775 23.0175 10.64 24.4875 9.68 26.31 9.35 27.615 9.5675 28.6425 10.175 29.31 11.12 29.55 12.35 29.25 14.2925 28.365 15.83 26.9025 16.8425 26.4576255 17"></polygon>
        <polygon id="Combined-Shape" fill="#FFD740" points="17.0059345 17 17.88 12.68 14.88 12.68 14.0059345 17 8 17 8 19 31.5 19 36.4499999 19 36.8837237 16.1085086 36.5275 16.46 35.5008252 17 33.97 17.21 32.6300038 17 26.4576255 17 24.87 17.21 23.5890726 17"></polygon>
        <polygon id="Combined-Shape" fill="#FFD740" points="41.6749999 17.5 41.4499999 19 52 19 52 5 41.5499999 5 43.5499999 5 43.3249999 6.5 50.5 6.5 50.5 17.5"></polygon>
        <polygon id="Combined-Shape" fill="#FFD740" points="42.985 15.41 44.11 15.155 44.755 14.555 46.255 15.5 45.7825 16.1 45.0625 16.6475 44.0575 17.0525 42.715 17.21 41.7371021 17.0859856 42.0274819 15.1501206"></polygon>
        <polygon id="Combined-Shape" fill="#FFD740" points="42.2157499 13.895 46.975 13.895 47.14 13.13 47.2225 12.6425 47.245 12.275 47.0575 11.195 46.495 10.2575 45.5425 9.5975 44.185 9.35 42.8737393 9.50840463 42.5792821 11.4714522 42.6625 11.4125 43.885 11.06 45.0475 11.3825 45.4 12.275 42.4587499 12.275"></polygon>
        <polygon id="Rectangle-2" fill="#FFD740" points="35 21 35 22 37.9999999 22 40.9999999 2 37.9999999 2 37.9999999 3 44.9999999 3 44.9999999 2 41.9999999 2 38.9999999 22 41.9999999 22 41.9999999 21"></polygon>
        <polygon id="Path" fill="#FFD740" points="26.1525 15.2 26.9325 14.6075 27.435 13.745 27.615 12.695 27.195 11.5175 26.07 11.12 25.08 11.3525 24.3 11.9675 23.79 12.845 23.61 13.88 24.03 15.0425 25.155 15.44"></polygon>
    </g>
</svg>