<?xml version="1.0" encoding="UTF-8"?>
<svg width="60px" height="24px" viewBox="0 0 60 24" version="1.1" xmlns="http://www.w3.org/2000/svg" xmlns:xlink="http://www.w3.org/1999/xlink" style="background: #262626;">
    <!-- Generator: Sketch 62 (91390) - https://sketch.com -->
    <title>RubberPin Copy</title>
    <desc>Created with Sketch.</desc>
    <g id="RubberPin-Copy" stroke="none" stroke-width="1" fill="none" fill-rule="evenodd">
        <rect fill="#262626" x="0" y="0" width="60" height="24"></rect>
        <polygon id="Combined-Shape" fill="#00E5FF" points="17.0011722 4 19.0011722 4 21.0011722 2 21.0011722 1 24.0011722 4 23.0011722 4 21.0011722 6 21.0011722 8 19.3658094 6.36463718 17.7023444 8.00591864 17 7.29408136 18.6586867 5.65751447"></polygon>
        <polygon id="Path-15" fill="#00E5FF" points="9.85370313 14.903034 9.29367849 9.76856832 12.2958828 6.91502468 29.0945128 13.1803805 31.7553704 13.1848139 33.3857454 14.492342 47.0257683 19.9168694 46.1828755 22.3580647 33.9663426 20.2687093 30.0000003 17.0510255"></polygon>
        <polygon id="Combined-Shape-Copy" fill="#00E5FF" points="32.6586867 9.65751447 31.0011722 8 33.0011722 8 35.0011722 6 35.0011722 5 38.0011722 8 37.0011722 8 35.0011722 10 35.0011722 12 33.3658094 10.3646372 31.7023444 12.0059186 31 11.2940814 32.6586867 9.65751447"></polygon>
        <polygon id="Combined-Shape-Copy-2" fill="#00E5FF" points="45.6586867 15.6575145 44.0011722 14 46.0011722 14 48.0011722 12 48.0011722 11 51.0011722 14 50.0011722 14 48.0011722 16 48.0011722 18 46.3658094 16.3646372 44.7023444 18.0059186 44 17.2940814 45.6586867 15.6575145"></polygon>
    </g>
</svg>