<?xml version="1.0" encoding="UTF-8"?>
<svg width="28px" height="24px" viewBox="0 0 28 24" version="1.1" xmlns="http://www.w3.org/2000/svg" xmlns:xlink="http://www.w3.org/1999/xlink" style="background: #262626;">
    <!-- Generator: Sketch 62 (91390) - https://sketch.com -->
    <title>Sample Label</title>
    <desc>Created with Sketch.</desc>
    <g id="Sample-Label" stroke="none" stroke-width="1" fill="none" fill-rule="evenodd">
        <rect fill="#262626" x="0" y="0" width="28" height="24"></rect>
        <polygon id="Rectangle-17" fill="#FFD740" points="2 17 5 17 19 17 19 19 2 19"></polygon>
        <polygon id="Rectangle-17-Copy-2" fill="#FFD740" points="3 20 9 20 21 20 21 22 3 22"></polygon>
        <polygon id="Rectangle-17-Copy" fill="#FFD740" points="8 14 18 14 26 14 26 16 8 16"></polygon>
        <polygon id="Combined-Shape" fill="#FFD740" points="12.6672619 6.13172798 15.8492424 3.65685425 15.1421356 2.24264069 13.7279221 1.53553391 11.2530483 4.71751442 10.1923882 3.65685425 9.48528137 4.36396103 13.0208153 7.89949494 13.7279221 7.19238816"></polygon>
        <polygon id="Combined-Shape" fill="#FFD740" fill-rule="nonzero" points="10.1923882 6.48528137 5.24264069 11.4350288 5.94974747 12.1421356 10.8994949 7.19238816 11.6066017 7.89949494 6.65685425 12.8492424 4.18198052 13.2027958 4.53553391 10.7279221 9.48528137 5.77817459"></polygon>
        <polygon id="Combined-Shape" fill="#FFD740" points="21 6.57142857 19.25 6.57142857 19.25 5.28571429 21.5 4.4000001 21.5 3.70000005 18.2857143 4.69999981 18.2857143 6.57142857 17 6.57142857 17 7.85714286 18.2857143 7.85714286 18.2857143 9.80000019 21.5 10.6999998 21.5 10 19.25 9.14285714 19.25 7.85714286 21 7.85714286 21 9.14285714 22 9.14285714 22 7.85714286 23.75 7.85714286 23.75 9.14285714 21.5 10 21.5 10.6999998 24.7142857 9.80000019 24.7142857 7.85714286 26 7.85714286 26 6.57142857 24.7142857 6.57142857 24.7142857 4.69999981 21.5 3.70000005 21.5 4.4000001 23.75 5.28571429 23.75 6.57142857 22 6.57142857 22 5.28571429 21 5.28571429"></polygon>
    </g>
</svg>