<?xml version="1.0" encoding="UTF-8"?>
<svg width="44px" height="24px" viewBox="0 0 44 24" version="1.1" xmlns="http://www.w3.org/2000/svg" xmlns:xlink="http://www.w3.org/1999/xlink" style="background: #262626;">
    <!-- Generator: Sketch 62 (91390) - https://sketch.com -->
    <title>Settings</title>
    <desc>Created with Sketch.</desc>
    <g id="Settings" stroke="none" stroke-width="1" fill="none" fill-rule="evenodd">
        <rect fill="#262626" x="0" y="0" width="44" height="24"></rect>
        <polygon id="Fill-1" fill="#FFD740" points="27.057871 7.33236583 23.9833548 8.78824083 24.9443226 9.24249917 25.6896452 12.4180325 23.6014194 14.9588075 20.2523871 14.9588075 18.1644839 12.4180325 18.4006129 11.4170492 15.3227097 12.8821075 12.8233548 15.4806742 16.0277097 19.4312492 18.8904516 17.7795158 19.357871 20.9754742 24.4962581 20.9754742 24.9638387 17.7793575 27.8277097 19.4255492 31.0314194 15.4822575 28.7536774 13.1186575 31.854 11.9438242 30.7104516 7.02614917"></polygon>
        <polygon id="Fill-2" fill="#FFD740" points="23.7750484 2.00001583 21.9265 4.71574917 20.0771452 2.0003325 15.4479516 4.18944917 16.4519839 7.30449917 13.142629 7.02757417 12.0000484 11.9455658 15.3818226 13.2321825 18.3023065 11.8543658 18.9095645 9.2426575 21.9269839 7.8162325 24.3918226 8.9814075 27.3032742 7.60802417 28.4047258 4.1881825"></polygon>
    </g>
</svg>