<?xml version="1.0" encoding="UTF-8"?>
<svg width="76px" height="24px" viewBox="0 0 76 24" version="1.1" xmlns="http://www.w3.org/2000/svg" xmlns:xlink="http://www.w3.org/1999/xlink" style="background: #262626;">
    <!-- Generator: Sketch 62 (91390) - https://sketch.com -->
    <title>Style Apply</title>
    <desc>Created with Sketch.</desc>
    <g id="Style-Apply" stroke="none" stroke-width="1" fill="none" fill-rule="evenodd">
        <rect fill="#262626" x="0" y="0" width="76" height="24"></rect>
        <polygon id="Fill-1" fill="#FF5252" points="63.0903062 5.30676964 60.9236552 2.09331289 57.6078148 4.33072835 63.0180526 12.433929 63.0064049 14.1237533 56.7787117 4.89081843 53.5664273 7.05667864 50.7247662 11.5714125 51.6911539 17.1024283 60.2590604 21.2820534 59.3383833 19.0167601 61.1154762 16.1634216 63.3667142 15.0372878 67.6915369 12.2105681 65.5309918 8.96569925 69.9995806 5.92345153 69.6060788 3.55077511 67.5537707 2.2961248"></polygon>
        <polygon id="Combined-Shape" fill="#FF5252" points="9.86276544 4.63420118 44.6313924 17.2889465 44.9614434 16.3821388 49.6599065 18.0922395 49.1468763 19.5017785 47.7373374 18.9887482 45.8579521 18.3047079 45.1739118 20.1840932 47.0532971 20.8681335 47.7373374 18.9887482 49.1468763 19.5017785 47.9498058 22.7907026 43.2513427 21.0806019 43.605332 20.1080243 8.83670501 7.45327904 8.48271572 8.4258566 3.78425262 6.71575589 4.29728283 5.30621696 5.70682176 5.81924717 7.58620701 6.50328746 8.27024729 4.62390222 6.39086205 3.93986193 5.70682176 5.81924717 4.29728283 5.30621696 5.49435333 2.01729278 10.1928164 3.7273935 9.86276544 4.63420118"></polygon>
        <polygon id="Rectangle-14" fill="#FF5252" points="13.6620198 2.43969262 17.240759 2.67806938 20.1354579 4.79583139 23.7141971 5.03420815 26.6088959 7.15197015 30.1876351 7.39034691 33.082334 9.50810892 36.6610732 9.74648568 39.5557721 11.8642477 43.1345112 12.1026244 42.7924911 13.0423171 39.2137519 12.8039403 36.319053 10.6861783 32.7403139 10.4478015 29.845615 8.33003953 26.2668758 8.09166277 23.3721769 5.97390077 19.7934377 5.73552401 16.8987389 3.617762 13.3199997 3.37938524"></polygon>
        <polygon id="Rectangle-14" fill="#FF5252" points="10.4492298 11.6919969 14.027969 11.9303736 16.9226679 14.0481356 20.5014071 14.2865124 23.396106 16.4042744 26.9748451 16.6426512 29.869544 18.7604132 33.4482832 18.9987899 36.3429821 21.1165519 39.9217212 21.3549287 39.5797011 22.2946213 36.0009619 22.0562445 33.106263 19.9384825 29.5275239 19.7001058 26.632825 17.5823438 23.0540858 17.343967 20.1593869 15.226205 16.5806478 14.9878283 13.6859489 12.8700662 10.1072097 12.6316895"></polygon>
    </g>
</svg>