<?xml version="1.0" encoding="UTF-8"?>
<svg width="89px" height="24px" viewBox="0 0 89 24" version="1.1" xmlns="http://www.w3.org/2000/svg" xmlns:xlink="http://www.w3.org/1999/xlink">
    <!-- Generator: Sketch 62 (91390) - https://sketch.com -->
    <title>CopyPaste</title>
    <desc>Created with Sketch.</desc>
    <g id="CopyPaste" stroke="none" stroke-width="1" fill="none" fill-rule="evenodd">
        <rect id="Rectangle" fill="#262626" x="0" y="0" width="45" height="24"></rect>
        <rect id="Rectangle-Copy" fill="#262626" x="46" y="0" width="43" height="24"></rect>
        <polygon id="Combined-Shape" fill="#FF5252" points="28 18 27 21 24 21 25 18"></polygon>
        <polygon id="Combined-Shape" fill="#FF5252" points="23 18 22 21 19 21 20 18"></polygon>
        <polygon id="Combined-Shape" fill="#FF5252" points="18 18 17 21 14 21 15 18"></polygon>
        <polygon id="Combined-Shape" fill="#FF5252" points="13 18 12 21 9 21 10 18"></polygon>
        <polygon id="Combined-Shape" fill="#FF5252" points="9 15 7 21 4 21 8 9 9 9 9 15"></polygon>
        <polygon id="Combined-Shape" fill="#FF5252" points="4 15 6 9 5 9 4 9 4 15"></polygon>
        <polygon id="Combined-Shape" fill="#FF5252" points="31 18 31 21 29 21 30 18"></polygon>
        <polygon id="Combined-Shape" fill="#FF5252" points="17 15 13 3 16 3 20 15 17 15"></polygon>
        <polygon id="Combined-Shape" fill="#FF5252" points="85 9 85 21 58 21 58 16 80 16 80 9"></polygon>
        <polygon id="Combined-Shape" fill="#FF5252" points="51 2 54 2 58 14 55 14"></polygon>
        <polygon id="Combined-Shape" fill="#FF5252" points="60 14 56 2 59 2 63 14 60 14"></polygon>
        <polygon id="Combined-Shape" fill="#FF5252" points="65 14 61 2 64 2 68 14 65 14"></polygon>
        <polygon id="Combined-Shape" fill="#FF5252" points="70 14 66 2 69 2 73 14 70 14"></polygon>
        <polygon id="Combined-Shape" fill="#FF5252" points="75 14 71 2 74 2 78 14 75 14"></polygon>
        <polygon id="Combined-Shape" fill="#FF5252" points="78 8 76 2 77 2 78 2 78 8 78 8"></polygon>
        <polygon id="Combined-Shape" fill="#FF5252" points="53 14 51 14 51 8"></polygon>
        <polygon id="Combined-Shape" fill="#FF5252" points="22 15 18 3 21 3 25 15 22 15"></polygon>
        <polygon id="Combined-Shape" fill="#FF5252" points="27 15 23 3 26 3 30 15 27 15"></polygon>
        <polygon id="Combined-Shape" fill="#FF5252" points="32 15 28 3 31 3 35 15 32 15"></polygon>
        <polygon id="Combined-Shape" fill="#FF5252" points="37 15 33 3 36 3 40 15 37 15"></polygon>
        <polygon id="Combined-Shape" fill="#FF5252" points="40 9 38 3 39 3 40 3 40 9 40 9"></polygon>
        <polygon id="Combined-Shape" fill="#FF5252" points="15 15 13 15 13 9"></polygon>
    </g>
</svg>