<?xml version="1.0" encoding="UTF-8"?>
<svg width="92px" height="24px" viewBox="0 0 92 24" version="1.1" xmlns="http://www.w3.org/2000/svg" xmlns:xlink="http://www.w3.org/1999/xlink" style="background: #262626;">
    <!-- Generator: Sketch 62 (91390) - https://sketch.com -->
    <title>Unbake</title>
    <desc>Created with Sketch.</desc>
    <g id="Unbake" stroke="none" stroke-width="1" fill="none" fill-rule="evenodd">
        <rect fill="#262626" x="0" y="0" width="92" height="24"></rect>
        <polygon id="Combined-Shape" fill="#FFD740" points="47 11 40 11 40 13 47 13 47 17 51 12 47 7"></polygon>
        <polygon id="Rectangle-7" fill="#FFD740" points="21 12 15 18 9 12 15 6"></polygon>
        <polygon id="Combined-Shape" fill="#FFD740" points="19.5 15.5 22 18 28 12 22 6 19.5 8.5 23 12 19.5 15.5"></polygon>
        <polygon id="Combined-Shape" fill="#FFD740" points="26.5 15.5 29 18 35 12 29 6 26.5 8.5 30 12 26.5 15.5"></polygon>
        <polygon id="f(x)" fill="#FFD740" points="58.4164474 10.7419091 56.5834474 10.7419091 56.5834474 9.18190908 58.7544474 9.18190908 59.1648901 7.326 59.3728901 6.806 59.7433901 6.3835 60.2243901 6.104 60.7638901 6 63.0518901 6 63.0518901 7.56 61.1018901 7.56 60.6728901 7.95 60.3924474 9.18190908 62.5894474 9.18190908 62.5894474 10.7419091 60.0544474 10.7419091 58.484 17.6189213 57.951 18.5354213 57.106 18.8149213 56.3715 18.6394213 55.819 18.1389213 55 16.8259213 56.261 16.0589213 56.833 17.0469213 56.989 17.0209213 58.4164474 10.7419091"></polygon>
        <polygon id="Path" fill="#FFD740" points="68.732 16.518 68.732 18.156 67.679 18.156 66.2295 17.9025 65.0595 17.1745 64.2795 15.998 64 14.399 64.156 13.06 64.871 9.706 65.6445 7.522 66.8535 6.066 68.4655 5.2535 70.448 5 71.02 5 71.02 6.638 70.266 6.638 67.77 7.444 66.496 9.992 65.833 13.164 65.716 14.191 65.9435 15.3415 66.522 16.05 67.2955 16.414 68.108 16.518 68.732 16.518"></polygon>
        <polygon id="Path" fill="#FFD740" points="74.615 11.575 75.291 13.174 75.447 13.174 75.954 12.238 77.254 12.914 76.838 13.746 75.213 14.812 74.3225 14.565 73.757 13.772 73.328 12.771 71.183 14.786 70.078 13.629 72.678 11.198 72.028 9.651 71.872 9.651 71.248 10.652 70 9.846 70.624 8.884 72.132 8 73.536 9.014 73.952 10.002 76.006 8.078 77.111 9.235 74.615 11.575"></polygon>
        <polygon id="Path" fill="#FFD740" points="78.288 6.638 78.288 5 79.341 5 80.7905 5.2535 81.9605 5.9815 82.7405 7.158 83.02 8.757 82.864 10.096 82.149 13.45 81.3755 15.634 80.1665 17.09 78.5545 17.9025 76.572 18.156 76 18.156 76 16.518 76.754 16.518 79.25 15.712 80.524 13.164 81.187 9.992 81.304 8.965 81.0765 7.8145 80.498 7.106 79.7245 6.742 78.912 6.638 78.288 6.638"></polygon>
    </g>
</svg>