<?xml version="1.0" encoding="UTF-8"?>
<svg width="92px" height="24px" viewBox="0 0 92 24" version="1.1" xmlns="http://www.w3.org/2000/svg" xmlns:xlink="http://www.w3.org/1999/xlink" style="background: #262626;">
    <!-- Generator: Sketch 62 (91390) - https://sketch.com -->
    <title>Upgrade</title>
    <desc>Created with Sketch.</desc>
    <g id="Upgrade" stroke="none" stroke-width="1" fill="none" fill-rule="evenodd">
        <rect fill="#262626" x="0" y="0" width="92" height="24"></rect>
        <polygon id="Combined-Shape" fill="#FFD740" fill-rule="nonzero" points="66.7880597 2.49227025 67.3878719 2.8256426 63.6320125 3.78072072 63.3855656 2.81156443 67.141425 1.85648631 67.5985864 1.74023466 67.7412372 2.18985866 72.1894793 16.2103665 71.2363019 16.5127781 69.9824691 12.5607962 68.7393793 13.4903767 67.6647494 15.5587924 67.7874687 18.176221 68.7643371 19.5403623 70.1947313 20.2475646 72.3436917 20.1359922 74.7267436 18.5143719 75.7727091 16.5528711 75.662784 13.7890811 74.7017859 12.4643863 73.1799119 11.7374424 70.6988298 12.0251029 70.2775058 10.4048473 73.7693279 10 75.9111809 11.0230855 77.2636692 12.8874326 77.4183754 16.7771317 75.9463059 19.5377062 72.5924494 21.81994 69.5680484 21.9769646 67.554942 20.9816632 66.1801183 19.0617998 66.0074058 15.3780866 67.519817 12.4670425 69.4861973 10.9965866"></polygon>
        <polygon id="Combined-Shape" fill="#FFD740" fill-rule="nonzero" points="49.2428262 15.0887733 53.5578774 15.4367795 55 19.1508789 63.2287598 18.536377 65.3736514 10.2763661 66.6958008 10.3833008 67.5949707 7.95947266 64.0092662 5.99101426 50.8724365 9.10351562 64.3611988 10.1944794 63.118892 14.9198993 61.6588921 14.787172 60.875 12 46.8969727 10.0068359 47.856424 14.3500627 45.9191251 14.7437362 45.8452938 12.8874326 44.4928055 11.0230855 43.9388115 10.7584626 42.9444711 12.3024873 43.2834105 12.4643863 44.2444086 13.7890811 44.2955009 15.0736686 40.9672324 15.7499974 45.5259574 8.64888924 59.99646 9.84838867 57.1610107 8.22827148 47.0576172 7.43310547 45.28125 4.99101426 37.2089844 7.95947266 44.3986579 8.55544431 39.4960479 16.203807 40.0165609 16.9636186 44.3357617 16.0859251 44.3543337 16.5528711 43.3083682 18.5143719 40.9253163 20.1359922 38.7763559 20.2475646 37.3459617 19.5403623 36.3690933 18.176221 36.246374 15.5587924 37.3210039 13.4903767 39.2804544 12.0251029 41.7615365 11.7374424 42.4050319 12.0448168 43.4580235 10.5288076 42.3509525 10 38.8591304 10.4048473 36.1014416 12.4670425 34.5890304 15.3780866 34.7617429 19.0617998 36.1365666 20.9816632 38.149673 21.9769646 41.174074 21.81994 44.5279305 19.5377062 46 16.7771317 45.9593859 15.7559926"></polygon>
        <polygon id="Combined-Shape" fill="#FFD740" points="18.5571042 22 36.8258823 22 33.4733887 21.2521973 30.173584 19.6357422 27.3737793 21.2521973 24.9506836 20.3620605 20.0328376 21.4765287 21.1933556 20.5295764 21.0303916 18.5530055 19.3645935 17.692862 18.1509215 18.1346025 17.8129745 18.7526579 17.3047889 16.8089862 15.7397553 16.3953379 16.9156162 16.2871863 18.3679447 15.3043141 19.5523665 13.7052902 19.9988694 11.7227855 18.2861476 8.83551543 16.2149822 7.69623465 12.034101 8.14081644 9.3141692 11.1246354 10.2307438 13.6429033 11.9178283 14.6770355 14.2454427 14.3375471 15.1061844 15.0981858 14.2455018 14.8955802 12.6442516 15.0241198 10.967643 17.7626412 11.9444791 19.7690905 13.230265 20.730178 16.0456213 20.2733069 16.9643384 19.4458246 16.4663 20.4934453 15.5540517 20.6841747 17.0472048 22 18.5571042 22"></polygon>
    </g>
</svg>