<svg width="70" height="40" viewBox="0 0 70 40" fill="none" xmlns="http://www.w3.org/2000/svg">
<rect x="0.5" y="0.5" width="69" height="39" rx="1.5" fill="#2A2A2A" stroke="#2E2E2E"/>
<g clip-path="url(#clip0_2603_1141)">
<path fill-rule="evenodd" clip-rule="evenodd" d="M48.8903 12.0925L59.2303 14.9517L49.4316 24.8803L48.4906 33.8331L46.6259 33.6371L47.3216 27.0184L46.4052 27.9469L45.0707 26.6298L47.6355 24.0309L48.8903 12.0925ZM49.7456 21.8929L55.6525 15.9077L50.5237 14.4895L49.7456 21.8929Z" fill="#56BDD4"/>
<path d="M62.6039 21.3377L56.5047 25.2494L63.9831 27.8101L54.111 34.4555L53.064 32.9001L59.806 28.3617L52.2258 25.7662L61.5916 19.7594L62.6039 21.3377Z" fill="#56BDD4"/>
<path d="M41.312 17.8091L39.6939 18.7563L41.4508 21.7578H36.5234V23.6328H41.4508L39.6939 26.6343L41.312 27.5815L44.1722 22.6953L41.312 17.8091Z" fill="#56BDD4"/>
<path fill-rule="evenodd" clip-rule="evenodd" d="M30.7218 4.79703L31.6136 6.31302C35.299 12.5782 34.0996 20.0033 32.5148 25.9916L30.2502 34.9542L24.1894 33.4587L30.5605 15.2948L31.9981 15.799L26.1817 32.3812L29.1443 33.1122L31.0399 25.61L31.041 25.6059C32.468 20.2147 33.4433 14.0837 31.147 8.75545L29.2269 15.2928L27.7652 14.8635L30.7218 4.79703ZM23.8679 5.63684L24.8503 7.09366C27.0305 10.3269 27.0898 13.2949 27.0898 14.6094H25.5664C25.5664 13.6424 25.533 11.777 24.5242 9.60088L23.2328 15.2479L21.7477 14.9083L23.8679 5.63684Z" fill="#56BDD4"/>
<path fill-rule="evenodd" clip-rule="evenodd" d="M15.8475 19.4286C16.9093 16.1371 19.973 13.9062 23.4315 13.9062H25.4662C27.7633 13.9062 29.9087 15.1082 31.1301 17.0448L29.8415 17.8575C28.8951 16.357 27.2329 15.4297 25.4662 15.4297H23.4315C20.6342 15.4297 18.1562 17.234 17.2974 19.8963L17.1507 20.351L15.7008 19.8833L15.8475 19.4286ZM33.0714 30.9142L31.4242 24.9791L32.8922 24.5717L34.9364 31.9373L30.0077 33.4433L29.5626 31.9864L33.0714 30.9142Z" fill="#56BDD4"/>
<path fill-rule="evenodd" clip-rule="evenodd" d="M21.8632 19.914C22.3441 20.3876 23.0087 20.6978 23.6759 20.7453C24.3727 20.7949 25.068 20.5614 25.5792 19.8945C25.1448 19.2921 24.5056 19.0166 23.83 19.0258C23.1627 19.0349 22.4403 19.3263 21.8632 19.914ZM23.8092 17.5025C25.1588 17.4841 26.4637 18.1687 27.1577 19.575L27.3341 19.9326L27.1408 20.2814C26.3125 21.776 24.9207 22.3612 23.5677 22.2649C22.2564 22.1716 20.9773 21.4419 20.2435 20.3323L19.9579 19.9004L20.2545 19.4759C21.1344 18.2164 22.4782 17.5207 23.8092 17.5025Z" fill="#56BDD4"/>
<path fill-rule="evenodd" clip-rule="evenodd" d="M5 19.2383H20.8203V20.7617H6.52344V22.8106L21.8817 25.3422L21.6339 26.8453L5 24.1035V19.2383Z" fill="#56BDD4"/>
<path fill-rule="evenodd" clip-rule="evenodd" d="M19.9649 32.2814L19.3009 25.82L20.8163 25.6643L21.6757 34.0271L15.8999 33.3156L17.08 25.9729L18.5841 26.2146L17.6548 31.9969L19.9649 32.2814Z" fill="#56BDD4"/>
</g>
<defs>
<clipPath id="clip0_2603_1141">
<rect width="60" height="30" fill="white" transform="translate(5 5)"/>
</clipPath>
</defs>
</svg>
