<svg width="40" height="40" viewBox="0 0 40 40" fill="none" xmlns="http://www.w3.org/2000/svg">
<rect x="0.5" y="0.5" width="39" height="39" rx="1.5" fill="#2A2A2A" stroke="#2E2E2E"/>
<path fill-rule="evenodd" clip-rule="evenodd" d="M15.3125 15.3125L22.5195 15.3125L22.5195 17.1875L17.1875 17.1875L17.1875 32.1875L15.3125 32.1875L15.3125 15.3125Z" fill="#B2B2B2"/>
<path fill-rule="evenodd" clip-rule="evenodd" d="M24.6875 14.8438C23.9108 14.8438 23.2812 15.4733 23.2812 16.25C23.2812 17.0267 23.9108 17.6562 24.6875 17.6562C25.4642 17.6562 26.0938 17.0267 26.0938 16.25C26.0938 15.4733 25.4642 14.8438 24.6875 14.8438ZM21.4062 16.25C21.4062 14.4378 22.8753 12.9688 24.6875 12.9688C26.4997 12.9688 27.9688 14.4378 27.9688 16.25C27.9688 18.0622 26.4997 19.5312 24.6875 19.5312C22.8753 19.5312 21.4062 18.0622 21.4062 16.25Z" fill="#B2B2B2"/>
<path fill-rule="evenodd" clip-rule="evenodd" d="M15.8617 6.875H34.0625V25.625H25.625V34.0625H23.75V23.75H32.1875V8.75H16.6383L8.75 16.6383V34.0625H6.875V15.8617L15.8617 6.875Z" fill="#B2B2B2"/>
</svg>
