<svg width="40" height="40" viewBox="0 0 40 40" fill="none" xmlns="http://www.w3.org/2000/svg">
<rect x="0.5" y="0.5" width="39" height="39" rx="1.5" fill="#2A2A2A" stroke="#2E2E2E"/>
<path fill-rule="evenodd" clip-rule="evenodd" d="M15.3125 15.3125L22.3438 15.3125L22.3438 17.1875L17.1875 17.1875L17.1875 32.1875L15.3125 32.1875L15.3125 15.3125Z" fill="#B2B2B2"/>
<path fill-rule="evenodd" clip-rule="evenodd" d="M21.069 8.74999C19.671 8.74999 18.4402 8.74999 16.25 8.74999C12.877 8.74997 8.75 11.2731 8.75 16.25V34.0916C8.75 34.0917 8.75 34.0918 7.8125 34.0918C6.875 34.0918 6.875 34.0917 6.875 34.0916V16.25C6.875 9.97685 12.123 6.87497 16.25 6.87499C18.4378 6.87499 19.6683 6.87499 21.0643 6.87499C22.0612 6.87499 23.1424 6.87498 24.7168 6.87499C26.8929 6.87499 29.221 7.93942 30.9915 9.58714C32.7714 11.2436 34.0918 13.5873 34.0918 16.25C34.0918 21.1389 30.3887 25.1114 25.6543 25.579V34.0918H23.7793V23.75H24.7168C28.8594 23.75 32.2168 20.4176 32.2168 16.25C32.2168 14.2252 31.2081 12.3501 29.7141 10.9597C28.2107 9.56055 26.32 8.74999 24.7168 8.74999C23.1448 8.74998 22.0645 8.74999 21.069 8.74999Z" fill="#B2B2B2"/>
<path fill-rule="evenodd" clip-rule="evenodd" d="M24.6875 14.8438C23.9108 14.8438 23.2812 15.4733 23.2812 16.25C23.2812 17.0267 23.9108 17.6562 24.6875 17.6562C25.4642 17.6562 26.0938 17.0267 26.0938 16.25C26.0938 15.4733 25.4642 14.8438 24.6875 14.8438ZM21.4062 16.25C21.4062 14.4378 22.8753 12.9688 24.6875 12.9688C26.4997 12.9688 27.9688 14.4378 27.9688 16.25C27.9688 18.0622 26.4997 19.5312 24.6875 19.5312C22.8753 19.5312 21.4062 18.0622 21.4062 16.25Z" fill="#B2B2B2"/>
</svg>
