<svg width="40" height="40" viewBox="0 0 40 40" fill="none" xmlns="http://www.w3.org/2000/svg">
<rect x="0.5" y="0.5" width="39" height="39" rx="1.5" fill="#2A2A2A" stroke="#2E2E2E"/>
<path fill-rule="evenodd" clip-rule="evenodd" d="M30.7812 7.8125C30.0046 7.8125 29.375 8.4421 29.375 9.21875C29.375 9.9954 30.0046 10.625 30.7812 10.625C31.5579 10.625 32.1875 9.9954 32.1875 9.21875C32.1875 8.4421 31.5579 7.8125 30.7812 7.8125ZM27.5 9.21875C27.5 7.40657 28.9691 5.9375 30.7812 5.9375C32.5934 5.9375 34.0625 7.40657 34.0625 9.21875C34.0625 11.0309 32.5934 12.5 30.7812 12.5C28.9691 12.5 27.5 11.0309 27.5 9.21875Z" fill="#B2B2B2"/>
<path fill-rule="evenodd" clip-rule="evenodd" d="M9.21875 29.375C8.4421 29.375 7.8125 30.0046 7.8125 30.7812C7.8125 31.5579 8.4421 32.1875 9.21875 32.1875C9.9954 32.1875 10.625 31.5579 10.625 30.7812C10.625 30.0046 9.9954 29.375 9.21875 29.375ZM5.9375 30.7812C5.9375 28.9691 7.40657 27.5 9.21875 27.5C11.0309 27.5 12.5 28.9691 12.5 30.7812C12.5 32.5934 11.0309 34.0625 9.21875 34.0625C7.40657 34.0625 5.9375 32.5934 5.9375 30.7812Z" fill="#B2B2B2"/>
<path fill-rule="evenodd" clip-rule="evenodd" d="M29.8326 11.6102L11.6393 29.8036L10.3134 28.4777L28.5068 10.2844L29.8326 11.6102Z" fill="#B2B2B2"/>
<path fill-rule="evenodd" clip-rule="evenodd" d="M31.1603 17.9763L18.0056 31.131L16.4862 29.6116L29.6409 16.4569L31.1603 17.9763Z" fill="#B2B2B2"/>
<path fill-rule="evenodd" clip-rule="evenodd" d="M23.6603 10.4763L10.5056 23.631L8.9862 22.1116L22.1409 8.95689L23.6603 10.4763Z" fill="#B2B2B2"/>
</svg>
