<svg width="40" height="40" viewBox="0 0 40 40" fill="none" xmlns="http://www.w3.org/2000/svg">
<rect x="0.5" y="0.5" width="39" height="39" rx="1.5" fill="#2A2A2A" stroke="#2E2E2E"/>
<path fill-rule="evenodd" clip-rule="evenodd" d="M15.3125 15.3125L27.9687 15.3125L27.9687 17.1875L17.1875 17.1875L17.1875 32.1875L15.3125 32.1875L15.3125 15.3125Z" fill="#B2B2B2"/>
<path fill-rule="evenodd" clip-rule="evenodd" d="M30.3125 14.8438C29.5358 14.8438 28.9062 15.4733 28.9062 16.25C28.9062 17.0267 29.5358 17.6562 30.3125 17.6562C31.0892 17.6562 31.7188 17.0267 31.7188 16.25C31.7188 15.4733 31.0892 14.8438 30.3125 14.8438ZM27.0312 16.25C27.0312 14.4378 28.5003 12.9688 30.3125 12.9688C32.1247 12.9688 33.5938 14.4378 33.5938 16.25C33.5938 18.0622 32.1247 19.5312 30.3125 19.5312C28.5003 19.5312 27.0312 18.0622 27.0312 16.25Z" fill="#B2B2B2"/>
<path fill-rule="evenodd" clip-rule="evenodd" d="M6.875 6.875H31.25V13.7891H29.375V8.75H8.75V34.0332H6.875V6.875ZM29.375 23.75V18.916H31.25V25.625H25.625V34.0332H23.75V23.75H29.375Z" fill="#B2B2B2"/>
</svg>
