<svg width="40" height="40" viewBox="0 0 40 40" fill="none" xmlns="http://www.w3.org/2000/svg">
<rect x="0.5" y="0.5" width="39" height="39" rx="1.5" fill="#2A2A2A" stroke="#2E2E2E"/>
<path fill-rule="evenodd" clip-rule="evenodd" d="M27.9688 26.6211V21.9336L29.8438 21.9336V26.6211L27.9688 26.6211ZM10.1562 26.6211V21.9336L12.0312 21.9336V26.6211L10.1562 26.6211ZM27.9688 32.2461V30.3125H29.8438V34.1211H26.0938V32.2461H27.9688ZM10.1563 30.3711L12.0313 30.3711V32.2461H13.9063V34.1211H10.1563V30.3711ZM22.3438 34.1211L17.6562 34.1211V32.2461L22.3438 32.2461V34.1211Z" fill="#B2B2B2"/>
<path fill-rule="evenodd" clip-rule="evenodd" d="M27.9688 13.4375V18.125L29.8438 18.125V13.4375L27.9688 13.4375ZM10.1563 13.4375L10.1562 18.125L12.0312 18.125L12.0313 13.4375L10.1563 13.4375ZM27.9688 7.8125V9.7461L29.8438 9.7461V5.9375L26.0938 5.9375L26.0938 7.8125H27.9688ZM10.1563 9.68751L12.0313 9.68749V7.8125L13.9063 7.8125V5.9375L10.1563 5.9375L10.1563 9.68751ZM22.3438 5.9375L17.6563 5.9375V7.8125L22.3438 7.8125L22.3438 5.9375Z" fill="#B2B2B2"/>
</svg>
