<svg width="40" height="40" viewBox="0 0 40 40" fill="none" xmlns="http://www.w3.org/2000/svg">
<rect x="0.5" y="0.5" width="39" height="39" rx="1.5" fill="#2A2A2A" stroke="#2E2E2E"/>
<path d="M16.25 7.8125H23.75V14.375H25.625V5.9375H14.375V14.375H16.25V7.8125Z" fill="#B2B2B2"/>
<path d="M16.25 25.625H14.375V34.0625H25.625V25.625H23.75V32.1875H16.25V25.625Z" fill="#B2B2B2"/>
<path d="M27.5 12.5H29.375V27.5H27.5V12.5Z" fill="#B2B2B2"/>
<path d="M10.625 12.5H12.5V27.5H10.625V12.5Z" fill="#B2B2B2"/>
<path d="M31.25 18.125H33.125V25.625H31.25V18.125Z" fill="#B2B2B2"/>
<path d="M6.875 18.125H8.75V25.625H6.875V18.125Z" fill="#B2B2B2"/>
<path fill-rule="evenodd" clip-rule="evenodd" d="M19.9998 22.8125C21.5531 22.8125 22.8123 21.5533 22.8123 20C22.8123 18.4467 21.5531 17.1875 19.9998 17.1875C18.4465 17.1875 17.1873 18.4467 17.1873 20C17.1873 21.5533 18.4465 22.8125 19.9998 22.8125ZM19.9998 24.6875C22.5887 24.6875 24.6873 22.5888 24.6873 20C24.6873 17.4112 22.5887 15.3125 19.9998 15.3125C17.411 15.3125 15.3123 17.4112 15.3123 20C15.3123 22.5888 17.411 24.6875 19.9998 24.6875Z" fill="#B2B2B2"/>
<path d="M19.0622 13.9062H20.9372V15.8398H19.0622V13.9062Z" fill="#B2B2B2"/>
<path d="M19.0622 23.9844H20.9372V26.1523H19.0622V23.9844Z" fill="#B2B2B2"/>
<path d="M14.2289 17.7797L15.1663 16.1559L16.8409 17.1227L15.9034 18.7465L14.2289 17.7797Z" fill="#B2B2B2"/>
<path d="M22.9561 22.8188L23.8936 21.195L25.7711 22.279L24.8336 23.9028L22.9561 22.8188Z" fill="#B2B2B2"/>
<path d="M24.8336 16.1559L25.7711 17.7797L24.0966 18.7465L23.1591 17.1227L24.8336 16.1559Z" fill="#B2B2B2"/>
<path d="M16.1063 21.1949L17.0438 22.8188L15.1663 23.9027L14.2288 22.2789L16.1063 21.1949Z" fill="#B2B2B2"/>
</svg>
