<svg width="40" height="40" viewBox="0 0 40 40" fill="none" xmlns="http://www.w3.org/2000/svg">
<rect x="0.5" y="0.5" width="39" height="39" rx="1.5" fill="#2A2A2A" stroke="#2E2E2E"/>
<path d="M11.5625 32.1875L7.8125 32.1875L7.8125 28.4375H5.9375V34.0625H11.5625V32.1875Z" fill="#B2B2B2"/>
<path fill-rule="evenodd" clip-rule="evenodd" d="M13.1629 28.1629L10.702 30.6239L9.37615 29.298L11.8371 26.8371L13.1629 28.1629Z" fill="#B2B2B2"/>
<path d="M18.1836 24.6289H15.3711V21.875H13.4961V26.5039H18.1836V24.6289Z" fill="#B2B2B2"/>
<path d="M7.8125 11.5625V7.8125H11.5625V5.9375L5.9375 5.9375L5.9375 11.5625H7.8125Z" fill="#B2B2B2"/>
<path fill-rule="evenodd" clip-rule="evenodd" d="M11.8371 13.1629L9.37615 10.702L10.702 9.37615L13.1629 11.8371L11.8371 13.1629Z" fill="#B2B2B2"/>
<path d="M15.3711 18.1836V15.3711H18.125V13.4961H13.4961V18.1836H15.3711Z" fill="#B2B2B2"/>
<path d="M28.4375 7.8125H32.1875V11.5625H34.0625V5.9375L28.4375 5.9375V7.8125Z" fill="#B2B2B2"/>
<path fill-rule="evenodd" clip-rule="evenodd" d="M26.8371 11.8371L29.298 9.37615L30.6239 10.702L28.1629 13.1629L26.8371 11.8371Z" fill="#B2B2B2"/>
<path d="M21.8164 15.3711H24.6289V18.125H26.5039V13.4961L21.8164 13.4961V15.3711Z" fill="#B2B2B2"/>
<path d="M32.1875 28.4375V32.1875H28.4375V34.0625H34.0625V28.4375H32.1875Z" fill="#B2B2B2"/>
<path fill-rule="evenodd" clip-rule="evenodd" d="M28.1629 26.8371L30.6239 29.298L29.298 30.6239L26.8371 28.1629L28.1629 26.8371Z" fill="#B2B2B2"/>
<path d="M24.6289 21.8164V24.6289H21.875V26.5039H26.5039V21.8164H24.6289Z" fill="#B2B2B2"/>
</svg>
