<svg width="512" height="512" viewBox="0 0 512 512" fill="none" xmlns="http://www.w3.org/2000/svg">
<path fill-rule="evenodd" clip-rule="evenodd" d="M255.999 13.3712L381 87.9124V97.0001C381 191.219 349.264 252.825 330.5 288.026C342.278 307.7 353.997 327.952 363.094 347.619C373.313 369.711 381 392.653 381 414.5V423.588L255.999 498.129L130.997 423.588V414.5C130.997 390.843 141.997 362.237 153.318 338.439C162.73 318.656 173.286 300.355 180.762 287.928C155.325 239.257 130.997 185.078 130.997 97.0001V87.9124L255.999 13.3712ZM198.354 321.278C193.116 330.57 187.459 341.163 182.215 352.186C172.911 371.744 165.819 390.831 163.671 405.814L238.856 450.649C234.436 396.551 217.732 358.665 198.354 321.278ZM271.039 451.902L348.432 405.751C346.816 392.744 341.797 377.801 334.05 361.053C324.587 340.594 311.81 318.993 298.414 296.757C297.243 294.812 296.066 292.861 294.886 290.907C282.239 269.947 269.281 248.471 259.28 228.11C250.053 209.325 242.52 189.921 240.52 171.399L163.975 125.753C168.757 193.967 190.367 237.722 213.285 281.014C214.584 283.467 215.888 285.92 217.194 288.378C241.154 333.452 265.918 380.039 271.039 451.902ZM178.237 97.0001L255.999 143.371L333.76 97.0001L255.999 50.6289L178.237 97.0001ZM347.902 125.825L272.68 170.681C274.473 182.775 279.762 197.226 288.003 214.002C294.567 227.367 302.549 241.34 311.156 255.83C326.105 225.899 343.429 183.711 347.902 125.825Z" fill="#B2B2B2"/>
</svg>
