<svg width="512" height="512" viewBox="0 0 512 512" fill="none" xmlns="http://www.w3.org/2000/svg">
<g clip-path="url(#clip0_215_89)">
<path fill-rule="evenodd" clip-rule="evenodd" d="M438.986 -3.46411L454.205 22.4088C517.103 129.335 496.632 256.057 469.586 358.256L430.937 511.219L327.498 485.695L436.233 175.697L460.767 184.303L361.502 467.305L412.063 479.782L444.414 351.744L444.433 351.673C468.788 259.665 485.432 155.028 446.242 64.093L413.473 175.663L388.527 168.337L438.986 -3.46411ZM322.012 10.8687L338.778 35.7318C375.988 90.9117 377 141.567 377 164H351C351 147.498 350.431 115.66 333.212 78.5216L311.173 174.898L285.827 169.102L322.012 10.8687Z" fill="#B2B2B2"/>
<path fill-rule="evenodd" clip-rule="evenodd" d="M185.131 246.248C203.252 190.073 255.539 152 314.564 152H349.29C388.494 152 425.108 172.513 445.954 205.565L423.962 219.435C407.81 193.826 379.441 178 349.29 178H314.564C266.823 178 224.532 208.794 209.876 254.23L207.372 261.991L182.628 254.009L185.131 246.248ZM479.086 442.269L450.973 340.977L476.026 334.023L510.914 459.731L426.799 485.433L419.201 460.567L479.086 442.269Z" fill="#B2B2B2"/>
<path fill-rule="evenodd" clip-rule="evenodd" d="M287.799 254.533C296.006 262.615 307.348 267.91 318.736 268.72C330.628 269.567 342.494 265.58 351.218 254.199C343.806 243.918 332.896 239.216 321.365 239.374C309.977 239.529 297.648 244.502 287.799 254.533ZM321.01 213.376C344.043 213.062 366.313 224.746 378.158 248.747L381.169 254.85L377.871 260.802C363.734 286.31 339.981 296.299 316.89 294.655C294.509 293.062 272.68 280.609 260.157 261.671L255.282 254.299L260.343 247.055C275.361 225.559 298.295 213.686 321.01 213.376Z" fill="#B2B2B2"/>
<path fill-rule="evenodd" clip-rule="evenodd" d="M0 243H270V269H26V303.967L288.114 347.173L283.886 372.827L0 326.033V243Z" fill="#B2B2B2"/>
<path fill-rule="evenodd" clip-rule="evenodd" d="M255.401 465.603L244.068 355.329L269.932 352.671L284.599 495.397L186.025 483.253L206.165 357.937L231.835 362.063L215.975 460.746L255.401 465.603Z" fill="#B2B2B2"/>
</g>
<defs>
<clipPath id="clip0_215_89">
<rect width="512" height="512" fill="white"/>
</clipPath>
</defs>
</svg>
