<svg width="512" height="512" viewBox="0 0 512 512" fill="none" xmlns="http://www.w3.org/2000/svg">
<path d="M335 432L335 480L303 480L303 432L335 432Z" fill="#B2B2B2"/>
<path d="M335 32L335 80L303 80L303 32L335 32Z" fill="#B2B2B2"/>
<path fill-rule="evenodd" clip-rule="evenodd" d="M447 272H480V240H447V129L192 129V240H144V192L112 192V240H64L64 160H32L32 352H64L64 272H112V320H144V272H192V384L447 384V272ZM415 272V352L224 352V272H273.731C280.321 290.643 298.1 304 319 304C339.899 304 357.679 290.643 364.269 272H415ZM224 240V161L415 161V240H364.269C357.679 221.357 339.899 208 319 208C298.1 208 280.321 221.357 273.731 240H224ZM303 256C303 264.837 310.163 272 319 272C327.837 272 335 264.837 335 256C335 247.163 327.837 240 319 240C310.163 240 303 247.163 303 256Z" fill="#B2B2B2"/>
</svg>
