<svg width="512" height="512" viewBox="0 0 512 512" fill="none" xmlns="http://www.w3.org/2000/svg">
<path fill-rule="evenodd" clip-rule="evenodd" d="M440 48C426.745 48 416 58.7452 416 72C416 85.2548 426.745 96 440 96C453.255 96 464 85.2548 464 72C464 58.7452 453.255 48 440 48ZM384 72C384 41.0721 409.072 16 440 16C470.928 16 496 41.0721 496 72C496 102.928 470.928 128 440 128C409.072 128 384 102.928 384 72Z" fill="#B2B2B2"/>
<path fill-rule="evenodd" clip-rule="evenodd" d="M72 416C58.7452 416 48 426.745 48 440C48 453.255 58.7452 464 72 464C85.2548 464 96 453.255 96 440C96 426.745 85.2548 416 72 416ZM16 440C16 409.072 41.0721 384 72 384C102.928 384 128 409.072 128 440C128 470.928 102.928 496 72 496C41.0721 496 16 470.928 16 440Z" fill="#B2B2B2"/>
<path fill-rule="evenodd" clip-rule="evenodd" d="M423.814 112.814L113.314 423.314L90.6863 400.686L401.186 90.1863L423.814 112.814Z" fill="#B2B2B2"/>
<path fill-rule="evenodd" clip-rule="evenodd" d="M446.469 221.463L221.963 445.969L196.031 420.037L420.537 195.531L446.469 221.463Z" fill="#B2B2B2"/>
<path fill-rule="evenodd" clip-rule="evenodd" d="M318.469 93.4626L93.9626 317.969L68.031 292.037L292.537 67.531L318.469 93.4626Z" fill="#B2B2B2"/>
</svg>
