<svg width="512" height="512" viewBox="0 0 512 512" fill="none" xmlns="http://www.w3.org/2000/svg">
<path fill-rule="evenodd" clip-rule="evenodd" d="M176 176L296 176L296 208L208 208L208 464L176 464L176 176Z" fill="#B2B2B2"/>
<path fill-rule="evenodd" clip-rule="evenodd" d="M274.244 64.0001C250.386 64.0001 229.38 64.0002 192 64C134.434 63.9998 64 107.062 64 192V496.498C64 496.499 64 496.5 48 496.5C32 496.5 32 496.499 32 496.498V192C32 84.9384 121.566 31.9997 192 32C229.339 32.0002 250.339 32.0001 274.165 32.0001C291.177 32 309.63 32 336.5 32C373.639 32 413.371 50.1664 443.588 78.2875C473.965 106.558 496.5 146.557 496.5 192C496.5 275.438 433.301 343.235 352.5 351.214V496.5H320.5V320H336.5C407.2 320 464.5 263.127 464.5 192C464.5 157.443 447.285 125.442 421.787 101.713C396.129 77.8336 363.861 64 336.5 64C309.672 64 291.234 64 274.244 64.0001Z" fill="#B2B2B2"/>
<path fill-rule="evenodd" clip-rule="evenodd" d="M336 168C322.745 168 312 178.745 312 192C312 205.255 322.745 216 336 216C349.255 216 360 205.255 360 192C360 178.745 349.255 168 336 168ZM280 192C280 161.072 305.072 136 336 136C366.928 136 392 161.072 392 192C392 222.928 366.928 248 336 248C305.072 248 280 222.928 280 192Z" fill="#B2B2B2"/>
</svg>
