<svg width="512" height="512" viewBox="0 0 512 512" fill="none" xmlns="http://www.w3.org/2000/svg">
<path fill-rule="evenodd" clip-rule="evenodd" d="M176 176L392 176L392 208L208 208L208 464L176 464L176 176Z" fill="#B2B2B2"/>
<path fill-rule="evenodd" clip-rule="evenodd" d="M432 168C418.745 168 408 178.745 408 192C408 205.255 418.745 216 432 216C445.255 216 456 205.255 456 192C456 178.745 445.255 168 432 168ZM376 192C376 161.072 401.072 136 432 136C462.928 136 488 161.072 488 192C488 222.928 462.928 248 432 248C401.072 248 376 222.928 376 192Z" fill="#B2B2B2"/>
<path fill-rule="evenodd" clip-rule="evenodd" d="M32 32H448V150H416V64H64V495.5H32V32ZM416 320V237.5H448V352H352V495.5H320V320H416Z" fill="#B2B2B2"/>
</svg>
