<svg width="512" height="512" viewBox="0 0 512 512" fill="none" xmlns="http://www.w3.org/2000/svg">
<path fill-rule="evenodd" clip-rule="evenodd" d="M176 176L299 176L299 208L208 208L208 464L176 464L176 176Z" fill="#B2B2B2"/>
<path fill-rule="evenodd" clip-rule="evenodd" d="M336 168C322.745 168 312 178.745 312 192C312 205.255 322.745 216 336 216C349.255 216 360 205.255 360 192C360 178.745 349.255 168 336 168ZM280 192C280 161.072 305.072 136 336 136C366.928 136 392 161.072 392 192C392 222.928 366.928 248 336 248C305.072 248 280 222.928 280 192Z" fill="#B2B2B2"/>
<path fill-rule="evenodd" clip-rule="evenodd" d="M185.373 32H496V352H352V496H320V320H464V64H198.627L64 198.627V496H32V185.373L185.373 32Z" fill="#B2B2B2"/>
</svg>
