<svg width="512" height="512" viewBox="0 0 512 512" fill="none" xmlns="http://www.w3.org/2000/svg">
<path fill-rule="evenodd" clip-rule="evenodd" d="M258 414C345.261 414 416 343.261 416 256C416 168.739 345.261 98 258 98C170.739 98 100 168.739 100 256C100 343.261 170.739 414 258 414ZM258 446C362.934 446 448 360.934 448 256C448 151.066 362.934 66 258 66C153.066 66 68 151.066 68 256C68 360.934 153.066 446 258 446Z" fill="#B2B2B2"/>
<path d="M295.842 204.193L243.343 320.932L214.158 307.807L266.657 191.069L295.842 204.193Z" fill="#B2B2B2"/>
<path d="M41.7661 142.562L481.359 340.254L468.234 369.438L28.6413 171.746L41.7661 142.562Z" fill="#B2B2B2"/>
</svg>
