<svg width="512" height="512" viewBox="0 0 512 512" fill="none" xmlns="http://www.w3.org/2000/svg">
<path fill-rule="evenodd" clip-rule="evenodd" d="M16 16V96H48V225H32V288H48V416H16V496H96V464H223V480H286V464H416V496H496V416H465V288H480V225H465V96H496V16H416V48H286V33H223V48H96V16H16ZM80 32H32V80H80V32ZM433 225V96H416V80H286V96H223V80H96V96H80V225H95V288H80V416H96V432H223V417H286V432H416V416H433V288H417V225H433ZM480 32H432V80H480V32ZM432 432H480V480H432V432ZM80 432H32V480H80V432ZM48 241H79V272H48V241ZM270 49H239V80H270V49ZM239 433H270V464H239V433ZM433 241H464V272H433V241Z" fill="#B2B2B2"/>
<path fill-rule="evenodd" clip-rule="evenodd" d="M256.5 157C217.357 157.063 190.664 164.47 174.326 174.211C158.159 183.851 153 195.008 153 204.155C153 213.826 157.968 220.728 164.367 225.91C167.562 228.498 170.834 230.394 173.33 231.638C174.559 232.251 175.548 232.681 176.176 232.938C176.488 233.066 176.706 233.149 176.814 233.19L176.866 233.209L187.595 236.891V361H325.405V236.891L336.134 233.209L336.186 233.19C336.294 233.149 336.512 233.066 336.824 232.938C337.452 232.681 338.441 232.251 339.67 231.638C342.166 230.394 345.438 228.498 348.633 225.91C355.032 220.728 360 213.826 360 204.155C360 195.008 354.841 183.851 338.674 174.211C322.336 164.47 295.643 157.063 256.5 157ZM256 125.001C213.586 125.125 180.774 133.111 157.938 146.726C134.684 160.592 121 181.012 121 204.155C121 226.774 133.329 241.952 144.228 250.778C148.231 254.02 152.192 256.547 155.595 258.449V393H357.405V258.449C360.808 256.547 364.769 254.02 368.772 250.778C379.671 241.952 392 226.774 392 204.155C392 181.012 378.316 160.592 355.062 146.726C332.226 133.111 299.414 125.125 257 125.001V125C256.833 125 256.667 125 256.5 125C256.333 125 256.167 125 256 125V125.001Z" fill="#B2B2B2"/>
<path d="M326 198C326 206.837 318.837 214 310 214C301.163 214 294 206.837 294 198C294 189.163 301.163 182 310 182C318.837 182 326 189.163 326 198Z" fill="#B2B2B2"/>
<path d="M297 240C297 248.837 289.837 256 281 256C272.163 256 265 248.837 265 240C265 231.163 272.163 224 281 224C289.837 224 297 231.163 297 240Z" fill="#B2B2B2"/>
<path d="M187 198C187 206.837 194.163 214 203 214C211.837 214 219 206.837 219 198C219 189.163 211.837 182 203 182C194.163 182 187 189.163 187 198Z" fill="#B2B2B2"/>
<path d="M216 240C216 248.837 223.163 256 232 256C240.837 256 248 248.837 248 240C248 231.163 240.837 224 232 224C223.163 224 216 231.163 216 240Z" fill="#B2B2B2"/>
<circle cx="256" cy="198" r="16" fill="#B2B2B2"/>
</svg>
