<?xml version="1.0" encoding="utf-8"?>
<!-- Generator: Adobe Illustrator 26.3.1, SVG Export Plug-In . SVG Version: 6.00 Build 0)  -->
<svg version="1.1" id="Layer_1" xmlns="http://www.w3.org/2000/svg" xmlns:xlink="http://www.w3.org/1999/xlink" x="0px" y="0px"
	 viewBox="0 0 40 40" style="enable-background:new 0 0 40 40;" xml:space="preserve">
<style type="text/css">
	.st0{fill:#B2B2B2;}
</style>
<g>
	<path class="st0" d="M34.7,25.8c-0.6-0.9-1.6-1.8-3.1-2.6v-4.6c2.6-1,3.9-2.6,3.9-4.6c0-3.5-3.3-9.5-15.4-9.5
		C8.6,4.5,4.5,9.6,4.5,14c0,2.1,1.3,3.7,3.9,4.7v4.5c-1.3,0.7-2.3,1.5-2.9,2.3c0,0.1-0.1,0.1-0.1,0.2c-0.6,0.9-0.9,1.8-0.9,2.6
		c0,4.4,2.6,7.2,15.4,7.2c13,0,15.6-2.7,15.6-7.2c0-0.7-0.2-1.4-0.6-2.2C34.9,26.1,34.8,25.9,34.7,25.8z M6.5,14
		c0-3.5,3.6-7.5,13.6-7.5c10.6,0,13.4,4.7,13.4,7.5c0,2.7-4.8,4.2-13.6,4.2C11.3,18.2,6.5,16.7,6.5,14z M8.4,25.5c0,0.6,0.4,1,1,1
		c0.6,0,1-0.4,1-1c0,0,0,0,0,0v-6.2c2.4,0.6,5.6,0.9,9.5,0.9c4,0,7.2-0.3,9.7-0.9v6.2c0,0,0,0,0,0c0,0.6,0.4,1,1,1c0.5,0,1-0.4,1-1
		c0.4,0.3,0.8,0.6,1.1,0.9c-1.7,1.3-8.9,2.3-16.8,1.7c-5.1-0.4-7.6-1.3-8.4-1.9C7.8,26,8.1,25.8,8.4,25.5z M19.9,33.5
		c-13.4,0-13.4-3-13.4-5.2c0-0.1,0-0.3,0-0.4c1.6,1.1,4.7,1.8,9.2,2.2c1.5,0.1,3.2,0.2,5,0.2c4.8,0,10.2-0.5,12.7-2c0,0,0,0,0,0.1
		C33.5,30.4,33.5,33.5,19.9,33.5z"/>
	<path class="st0" d="M10.1,13.3c-0.7,0.5-0.9,1.2-0.3,1.6c0.5,0.4,1.5,0.3,2.2-0.2s0.9-1.2,0.3-1.6C11.8,12.8,10.8,12.8,10.1,13.3z
		"/>
	<path class="st0" d="M22.1,14.7c-0.9,0.4-0.9,1.1-0.6,1.4c0.4,0.3,1.2,0.4,2.1,0c0.9-0.4,0.9-1.1,0.6-1.4
		C23.8,14.3,23,14.2,22.1,14.7z"/>
	<path class="st0" d="M16,14.9c-0.6,0.1-1,0.6-0.8,1.1c0.2,0.5,0.8,0.8,1.5,0.7s1-0.6,0.8-1.1S16.6,14.8,16,14.9z"/>
	<path class="st0" d="M28.8,14.3c-0.7,0.2-1,0.8-0.7,1.4c0.3,0.7,1.1,0.9,1.7,0.7c0.7-0.2,1-0.8,0.7-1.4
		C30.2,14.3,29.4,14.1,28.8,14.3z"/>
	<path class="st0" d="M28.7,11.2c0.5,0,1.1-0.4,1-1.1c-0.1-0.7-0.6-1.1-1.1-1.1c-0.5,0-1.1,0.4-1,1.1C27.6,10.9,28.2,11.2,28.7,11.2
		z"/>
	<path class="st0" d="M20.7,9.4c0.5,0.2,1.2,0.1,1.6-0.6c0.4-0.7,0.1-1.2-0.4-1.3c-0.5-0.2-1.2-0.1-1.6,0.6
		C19.9,8.7,20.2,9.2,20.7,9.4z"/>
	<path class="st0" d="M13,8.7c-1,0-1.5,0.3-1.5,0.6s0.4,0.7,1.4,0.8c1,0,1.5-0.3,1.5-0.6S14,8.8,13,8.7z"/>
	<path class="st0" d="M20,13.3C20,13.3,20,13.3,20,13.3c1.8,0,3.4-0.4,4.3-1.1c0.4-0.3,0.5-1,0.2-1.4c-0.3-0.4-1-0.5-1.4-0.2
		c-0.5,0.3-1.5,0.7-3.1,0.7c0,0,0,0,0,0c-1.6,0-2.7-0.4-3.1-0.7c-0.4-0.3-1.1-0.2-1.4,0.2c-0.3,0.4-0.2,1.1,0.2,1.4
		C16.7,12.9,18.3,13.3,20,13.3z"/>
	<path class="st0" d="M14.1,20.6c-0.6,0-1,0.4-1,1v3.9v0.3c0,0.6,0.4,1,1,1s1-0.4,1-1v-0.3v-3.9C15.1,21.1,14.6,20.6,14.1,20.6z"/>
	<path class="st0" d="M24.8,27.2H27c0.6,0,1-0.4,1-1c0-0.3-0.1-0.5-0.3-0.7c-0.2-0.2-0.4-0.3-0.7-0.3h-2.2c-0.3,0-0.6,0.1-0.7,0.3
		c-0.2,0.2-0.3,0.4-0.3,0.7C23.8,26.7,24.2,27.2,24.8,27.2z"/>
	<path class="st0" d="M26.3,24.4c0.6,0,1-0.4,1-1v-1.8c0-0.6-0.4-1-1-1s-1,0.4-1,1v1.8C25.3,24,25.8,24.4,26.3,24.4z"/>
	<path class="st0" d="M21,27.2c0.6,0,1-0.4,1-1v-0.7v-3.4c0-0.6-0.4-1-1-1c-0.6,0-1,0.4-1,1v3.4v0.7C20,26.7,20.4,27.2,21,27.2z"/>
	<path class="st0" d="M16.7,27.2c0.6,0,1-0.4,1-1v-0.7v-1.1c0-0.6-0.4-1-1-1s-1,0.4-1,1v1.1v0.7C15.7,26.7,16.1,27.2,16.7,27.2z"/>
</g>
</svg>
