<svg width="512" height="512" viewBox="0 0 512 512" fill="none" xmlns="http://www.w3.org/2000/svg">
<path d="M468.439 339.819C459.768 326.813 445.316 313.806 423.639 302.245V235.768C461.213 221.316 480 198.194 480 169.29C480 118.71 432.31 32 257.445 32C91.2516 32 32 105.703 32 169.29C32 199.639 50.7871 222.761 88.3613 237.213V302.245C69.5742 312.361 55.1226 323.923 46.4516 335.484C46.4516 336.929 45.0065 336.929 45.0065 338.374C36.3355 351.381 32 364.387 32 375.948C32 439.535 69.5742 480 254.555 480C442.426 480 480 440.981 480 375.948C480 365.832 477.11 355.716 471.329 344.155C471.329 344.155 469.884 341.264 468.439 339.819ZM60.9032 169.29C60.9032 118.71 112.929 60.9032 257.445 60.9032C410.632 60.9032 451.097 128.826 451.097 169.29C451.097 208.31 381.729 229.987 254.555 229.987C130.271 229.987 60.9032 208.31 60.9032 169.29ZM88.3613 335.484C88.3613 344.155 94.1419 349.935 102.813 349.935C111.484 349.935 117.265 344.155 117.265 335.484V245.884C151.948 254.555 198.194 258.89 254.555 258.89C312.361 258.89 358.606 254.555 394.735 245.884V335.484C394.735 344.155 400.516 349.935 409.187 349.935C416.413 349.935 423.639 344.155 423.639 335.484C429.419 339.819 435.2 344.155 439.535 348.49C414.968 367.277 310.916 381.729 196.748 373.058C123.045 367.277 86.9161 354.271 75.3548 345.6C79.6903 342.71 84.0258 339.819 88.3613 335.484ZM254.555 451.097C60.9032 451.097 60.9032 407.742 60.9032 375.948C60.9032 374.503 60.9032 371.613 60.9032 370.168C84.0258 386.064 128.826 396.181 193.858 401.961C215.535 403.406 240.103 404.852 266.116 404.852C335.484 404.852 413.523 397.626 449.652 375.948C449.652 375.948 449.652 375.948 449.652 377.394C451.097 406.297 451.097 451.097 254.555 451.097Z" fill="#B2B2B2"/>
<path d="M112.929 159.174C102.813 166.4 99.9226 176.516 108.594 182.297C115.819 188.077 130.271 186.632 140.387 179.406C150.503 172.181 153.394 162.065 144.723 156.284C137.497 151.948 123.045 151.948 112.929 159.174Z" fill="#B2B2B2"/>
<path d="M286.348 179.406C273.342 185.187 273.342 195.303 277.677 199.639C283.458 203.974 295.019 205.419 308.026 199.639C321.032 193.858 321.032 183.742 316.697 179.406C310.916 173.626 299.355 172.18 286.348 179.406Z" fill="#B2B2B2"/>
<path d="M198.194 182.297C189.523 183.742 183.742 190.968 186.632 198.194C189.523 205.42 198.194 209.755 208.31 208.31C218.426 206.865 222.761 199.639 219.871 192.413C216.981 185.187 206.864 180.852 198.194 182.297Z" fill="#B2B2B2"/>
<path d="M383.174 173.625C373.058 176.515 368.723 185.186 373.058 193.857C377.394 203.973 388.955 206.864 397.626 203.973C407.742 201.083 412.077 192.412 407.742 183.741C403.406 173.625 391.845 170.735 383.174 173.625Z" fill="#B2B2B2"/>
<path d="M381.729 128.826C388.955 128.826 397.626 123.045 396.181 112.929C394.735 102.813 387.51 97.0323 380.284 97.0323C373.058 97.0323 364.387 102.813 365.832 112.929C365.832 124.49 374.503 128.826 381.729 128.826Z" fill="#B2B2B2"/>
<path d="M266.116 102.814C273.342 105.704 283.458 104.259 289.239 94.1426C295.019 84.0265 290.684 76.8007 283.458 75.3555C276.232 72.4652 266.116 73.9104 260.335 84.0265C254.555 92.6975 258.89 99.9233 266.116 102.814Z" fill="#B2B2B2"/>
<path d="M154.839 92.696C140.387 92.696 133.161 97.0315 133.161 101.367C133.161 105.703 138.942 111.483 153.394 112.928C167.845 112.928 175.071 108.593 175.071 104.257C175.071 99.9219 169.29 94.1412 154.839 92.696Z" fill="#B2B2B2"/>
<path d="M256 159.174C282.013 159.174 305.136 153.393 318.142 143.277C323.923 138.941 325.368 128.825 321.032 123.045C316.697 117.264 306.581 115.819 300.8 120.154C293.574 124.49 279.123 130.271 256 130.271C232.877 130.271 216.981 124.49 211.2 120.154C205.419 115.819 195.303 117.264 190.968 123.045C186.632 128.825 188.077 138.941 193.858 143.277C208.31 153.393 231.432 159.174 256 159.174Z" fill="#B2B2B2"/>
<path d="M170.735 264.671C162.064 264.671 156.284 270.451 156.284 279.122V335.484V339.819C156.284 348.49 162.064 354.271 170.735 354.271C179.406 354.271 185.187 348.49 185.187 339.819V335.484V279.122C185.187 271.896 177.961 264.671 170.735 264.671Z" fill="#B2B2B2"/>
<path d="M325.368 360.051H357.161C365.832 360.051 371.613 354.27 371.613 345.599C371.613 341.264 370.168 338.374 367.278 335.483C364.387 332.593 361.497 331.148 357.161 331.148H325.368C321.032 331.148 316.697 332.593 315.252 335.483C312.361 338.374 310.916 341.264 310.916 345.599C310.916 352.825 316.697 360.051 325.368 360.051Z" fill="#B2B2B2"/>
<path d="M347.045 319.587C355.716 319.587 361.497 313.806 361.497 305.135V279.122C361.497 270.451 355.716 264.671 347.045 264.671C338.374 264.671 332.594 270.451 332.594 279.122V305.135C332.594 313.806 339.819 319.587 347.045 319.587Z" fill="#B2B2B2"/>
<path d="M270.452 360.051C279.123 360.051 284.903 354.271 284.903 345.6V335.484V286.348C284.903 277.677 279.123 271.896 270.452 271.896C261.781 271.896 256 277.677 256 286.348V335.484V345.6C256 352.826 261.781 360.051 270.452 360.051Z" fill="#B2B2B2"/>
<path d="M208.31 360.052C216.981 360.052 222.761 354.271 222.761 345.6V335.484V319.587C222.761 310.917 216.981 305.136 208.31 305.136C199.639 305.136 193.858 310.917 193.858 319.587V335.484V345.6C193.858 352.826 199.639 360.052 208.31 360.052Z" fill="#B2B2B2"/>
</svg>
