<svg width="512" height="512" viewBox="0 0 512 512" fill="none" xmlns="http://www.w3.org/2000/svg">
<path d="M65.0147 145L65 145V368C65 412.183 150.737 448 256.5 448C362.263 448 448 412.183 448 368V145H447.985C447.516 160.999 435.805 175.867 416 188.29V368C416 368.184 415.988 368.789 415.372 370.046C414.7 371.418 413.284 373.588 410.464 376.372C404.643 382.122 394.583 388.772 379.576 395.041C349.698 407.523 306.203 416 256.5 416C206.797 416 163.302 407.523 133.424 395.041C118.417 388.772 108.357 382.122 102.536 376.372C99.7162 373.588 98.3002 371.418 97.6282 370.046C97.0122 368.789 97 368.184 97 368V188.29C77.1946 175.867 65.4838 160.999 65.0147 145Z" fill="#B2B2B2"/>
<path fill-rule="evenodd" clip-rule="evenodd" d="M415.372 146.046C415.988 144.789 416 144.184 416 144C416 143.816 415.988 143.211 415.372 141.954C414.7 140.582 413.284 138.412 410.464 135.628C404.643 129.878 394.583 123.228 379.576 116.959C349.698 104.477 306.203 96 256.5 96C206.797 96 163.302 104.477 133.424 116.959C118.417 123.228 108.357 129.878 102.536 135.628C99.7162 138.412 98.3002 140.582 97.6282 141.954C97.0122 143.211 97 143.816 97 144C97 144.184 97.0122 144.789 97.6282 146.046C98.3002 147.418 99.7162 149.588 102.536 152.372C108.357 158.122 118.417 164.772 133.424 171.041C163.302 183.523 206.797 192 256.5 192C306.203 192 349.698 183.523 379.576 171.041C394.583 164.772 404.643 158.122 410.464 152.372C413.284 149.588 414.7 147.418 415.372 146.046ZM256.5 224C362.263 224 448 188.183 448 144C448 99.8172 362.263 64 256.5 64C150.737 64 65 99.8172 65 144C65 188.183 150.737 224 256.5 224Z" fill="#B2B2B2"/>
</svg>
