<svg width="512" height="512" viewBox="0 0 512 512" fill="none" xmlns="http://www.w3.org/2000/svg">
<g clip-path="url(#clip0_7_107)">
<path fill-rule="evenodd" clip-rule="evenodd" d="M256.187 12.9514L410.67 112.553L393.33 139.447L256.223 51.0486L119.695 139.431L102.305 112.569L256.187 12.9514Z" fill="#B2B2B2"/>
<path fill-rule="evenodd" clip-rule="evenodd" d="M255.53 138C368.564 138 466.19 203.974 512 299.515C493.395 338.318 466.243 372.244 432.984 398.854L461.956 449.035L434.243 465.035L406.792 417.489C367.414 442.285 321.525 457.686 272.271 460.546V512.183H240.271V460.628C191.588 458.053 146.154 443.23 106.993 419.184L80.5204 465.035L52.8076 449.035L80.6187 400.865C46.1991 373.962 18.136 339.303 -0.941406 299.516C44.8695 203.974 142.495 138 255.53 138ZM255.529 429.031C160.813 429.031 78.2327 376.834 35.0822 299.515C78.2327 222.197 160.813 170 255.53 170C350.246 170 432.826 222.197 475.977 299.515C432.826 376.834 350.246 429.031 255.529 429.031Z" fill="#B2B2B2"/>
<path fill-rule="evenodd" clip-rule="evenodd" d="M256.197 351.948C285.37 351.948 309.019 328.299 309.019 299.126C309.019 269.953 285.37 246.303 256.197 246.303C227.024 246.303 203.375 269.953 203.375 299.126C203.375 328.299 227.024 351.948 256.197 351.948ZM256.197 383.948C303.043 383.948 341.019 345.972 341.019 299.126C341.019 252.28 303.043 214.303 256.197 214.303C209.351 214.303 171.375 252.28 171.375 299.126C171.375 345.972 209.351 383.948 256.197 383.948Z" fill="#B2B2B2"/>
</g>
<defs>
<clipPath id="clip0_7_107">
<rect width="512" height="512" fill="white"/>
</clipPath>
</defs>
</svg>
