<svg width="512" height="512" viewBox="0 0 512 512" fill="none" xmlns="http://www.w3.org/2000/svg">
<path fill-rule="evenodd" clip-rule="evenodd" d="M400 112.75H114.25V400H400V112.75ZM90.25 88.75V424H424V88.75H90.25Z" fill="#C4C4C4"/>
<rect x="73" y="73" width="39" height="39" fill="#C4C4C4"/>
<rect x="73" y="400" width="39" height="39" fill="#C4C4C4"/>
<rect x="400" y="400" width="39" height="39" fill="#C4C4C4"/>
<rect x="400" y="73" width="39" height="39" fill="#C4C4C4"/>
<path d="M163.75 194.5C179.69 186.991 186.448 177.588 194.881 152.5C200.188 179.134 206.746 187.61 223 194.5C200.387 200.222 195.31 209.65 194.881 233.5C189.319 214.206 184.777 204.265 163.75 194.5Z" fill="#C4C4C4"/>
<path d="M310 227.22C317.769 220.672 321.611 213.579 327.716 195.25C330.698 212.495 333.882 220.148 344.5 227.22C333.953 232.171 331.724 241.494 327.783 257.971L327.716 258.25C323.44 243.985 320.381 236.522 310 227.22Z" fill="#C4C4C4"/>
<path d="M241.75 314.965C259.101 309.134 266.979 297.121 275.596 262C280.693 289.736 287.145 297.383 307.75 314.965C291.196 325.845 283.986 337.713 275.596 368.5C269.509 342.825 264.493 329.503 241.75 314.965Z" fill="#C4C4C4"/>
<path d="M142.75 294.25C149.814 289.358 152.783 285.008 157 275.5C160.022 286.961 162.762 290.714 169 294.25C160.598 297.496 157.862 301.305 157 312.25C152.749 303.465 149.615 299.548 142.75 294.25Z" fill="#C4C4C4"/>
<path d="M298 157.226C290.331 162.45 287.107 167.095 282.529 177.25C279.686 166.112 276.623 159.879 269.5 155.223C277.773 149.769 280.851 145.949 282.529 136C287.144 145.382 290.546 151.567 298 157.226Z" fill="#C4C4C4"/>
</svg>
