<svg width="40" height="40" viewBox="0 0 40 40" fill="none" xmlns="http://www.w3.org/2000/svg">
<rect width="40" height="40" rx="2" fill="#2E2E2E"/>
<g clip-path="url(#clip0_1318_1848)">
<path fill-rule="evenodd" clip-rule="evenodd" d="M14.3207 30.3261C13.4652 30.3261 12.7717 31.0196 12.7717 31.875C12.7717 32.7304 13.4652 33.4239 14.3207 33.4239C15.1761 33.4239 15.8696 32.7304 15.8696 31.875C15.8696 31.0196 15.1761 30.3261 14.3207 30.3261ZM10.7065 31.875C10.7065 29.879 12.3246 28.2609 14.3207 28.2609C16.3167 28.2609 17.9348 29.879 17.9348 31.875C17.9348 33.871 16.3167 35.4891 14.3207 35.4891C12.3246 35.4891 10.7065 33.871 10.7065 31.875Z" fill="#B2B2B2"/>
<path fill-rule="evenodd" clip-rule="evenodd" d="M25.6793 7.02785C24.8239 7.02785 24.1304 7.72132 24.1304 8.57677C24.1304 9.43221 24.8239 10.1257 25.6793 10.1257C26.5348 10.1257 27.2283 9.43221 27.2283 8.57677C27.2283 7.72132 26.5348 7.02785 25.6793 7.02785ZM22.0652 8.57677C22.0652 6.58074 23.6833 4.96264 25.6793 4.96264C27.6754 4.96264 29.2935 6.58074 29.2935 8.57677C29.2935 10.5728 27.6754 12.1909 25.6793 12.1909C23.6833 12.1909 22.0652 10.5728 22.0652 8.57677Z" fill="#B2B2B2"/>
<path fill-rule="evenodd" clip-rule="evenodd" d="M15.9323 19.6145C17.2279 20.1589 18.6632 20.6701 20.068 21.1705L20.2826 21.247C22.5215 22.0448 24.6708 22.8211 26.2872 23.6955C27.0929 24.1313 27.7089 24.562 28.123 24.9877C28.5317 25.4077 28.6915 25.7668 28.7157 26.0812C28.7672 26.7507 28.4008 27.3657 27.3243 27.9567C26.246 28.5487 24.7033 28.9577 23.0457 29.2261C21.4083 29.4912 19.7477 29.6057 18.4888 29.6532C17.8613 29.6769 17.338 29.6838 16.973 29.6847C16.7906 29.6852 16.6479 29.6843 16.5518 29.6832C16.5037 29.6826 16.4674 29.6821 16.4434 29.6816L16.4171 29.6811L16.4111 29.681L16.41 29.681C16.4099 29.681 16.4101 29.681 16.3859 30.7133C16.3616 31.7456 16.3619 31.7456 16.3622 31.7457L16.363 31.7457L16.3746 31.7459L16.4072 31.7465C16.4352 31.747 16.476 31.7477 16.5285 31.7483C16.6336 31.7494 16.7859 31.7505 16.9786 31.75C17.3638 31.7489 17.9115 31.7417 18.5667 31.717C19.8731 31.6677 21.625 31.5482 23.3758 31.2648C25.1065 30.9845 26.9278 30.5304 28.3182 29.767C29.7102 29.0028 30.9169 27.7703 30.7748 25.9228C30.7022 24.9788 30.2287 24.1903 29.6032 23.5475C28.9833 22.9103 28.1643 22.3629 27.2698 21.879C25.4859 20.914 23.174 20.0849 20.9759 19.3016L20.8498 19.2567C19.6838 18.8412 18.5525 18.4381 17.5171 18.0298L15.9323 19.6145ZM16.8376 11.6101C17.212 11.4802 17.5985 11.3596 17.9912 11.248C19.412 10.8443 20.8428 10.5779 21.9249 10.4123C22.4642 10.3298 22.9129 10.2729 23.2252 10.2368C23.3812 10.2188 23.503 10.206 23.5848 10.1978C23.6257 10.1937 23.6565 10.1907 23.6767 10.1888L23.6987 10.1868L23.7035 10.1863L23.7043 10.1863C23.7043 10.1863 23.7041 10.1863 23.6141 9.15761C23.5242 8.12893 23.524 8.12895 23.5237 8.12898L23.5205 8.12926L23.5124 8.12998L23.4838 8.13262C23.4593 8.13492 23.4238 8.13833 23.3782 8.14292C23.287 8.15209 23.155 8.16599 22.9881 8.18527C22.6546 8.22382 22.1805 8.28394 21.6126 8.37083C20.4802 8.54409 18.9584 8.82621 17.4267 9.26147C16.6985 9.46837 15.9517 9.71436 15.2347 10.0072L16.8376 11.6101Z" fill="#B2B2B2"/>
<path fill-rule="evenodd" clip-rule="evenodd" d="M14.7534 15.0616L10.7375 11.0457L6.72162 15.0616L10.7375 19.0775L14.7534 15.0616ZM10.7375 8.125L3.80097 15.0616L10.7375 21.9981L17.6741 15.0616L10.7375 8.125Z" fill="#B2B2B2"/>
</g>
<rect x="0.5" y="0.5" width="39" height="39" rx="1.5" stroke="#B2B2B2" stroke-opacity="0.06"/>
<defs>
<clipPath id="clip0_1318_1848">
<rect width="33.0435" height="33.0435" fill="white" transform="translate(3.47826 3.47826)"/>
</clipPath>
</defs>
</svg>
