<svg width="40" height="40" viewBox="0 0 40 40" fill="none" xmlns="http://www.w3.org/2000/svg">
<rect width="40" height="40" rx="2" fill="#2E2E2E"/>
<rect x="14.1296" y="24.4557" width="14.6946" height="2.00068" transform="rotate(-45 14.1296 24.4557)" fill="#B2B2B2"/>
<rect x="23.0978" y="8.6413" width="2.06522" height="8.26087" fill="#B2B2B2"/>
<rect x="16.9022" y="31.3587" width="2.06522" height="8.26087" transform="rotate(-180 16.9022 31.3587)" fill="#B2B2B2"/>
<rect x="31.3587" y="14.837" width="2.06522" height="8.26087" transform="rotate(90 31.3587 14.837)" fill="#B2B2B2"/>
<rect x="8.6413" y="25.163" width="2.06522" height="8.26087" transform="rotate(-90 8.6413 25.163)" fill="#B2B2B2"/>
<path fill-rule="evenodd" clip-rule="evenodd" d="M8.25408 33.8111C9.39466 33.8111 10.3193 32.8865 10.3193 31.7459C10.3193 30.6053 9.39466 29.6807 8.25408 29.6807C7.11349 29.6807 6.18886 30.6053 6.18886 31.7459C6.18886 32.8865 7.11349 33.8111 8.25408 33.8111ZM8.25408 35.8764C10.5353 35.8764 12.3845 34.0271 12.3845 31.7459C12.3845 29.4647 10.5353 27.6155 8.25408 27.6155C5.9729 27.6155 4.12364 29.4647 4.12364 31.7459C4.12364 34.0271 5.9729 35.8764 8.25408 35.8764Z" fill="#B2B2B2"/>
<path fill-rule="evenodd" clip-rule="evenodd" d="M31.7459 10.3193C32.8865 10.3193 33.8111 9.39467 33.8111 8.25408C33.8111 7.11349 32.8865 6.18886 31.7459 6.18886C30.6053 6.18886 29.6807 7.11349 29.6807 8.25408C29.6807 9.39467 30.6053 10.3193 31.7459 10.3193ZM31.7459 12.3845C34.0271 12.3845 35.8764 10.5353 35.8764 8.25408C35.8764 5.9729 34.0271 4.12364 31.7459 4.12364C29.4647 4.12364 27.6155 5.9729 27.6155 8.25408C27.6155 10.5353 29.4647 12.3845 31.7459 12.3845Z" fill="#B2B2B2"/>
<rect x="0.5" y="0.5" width="39" height="39" rx="1.5" stroke="#B2B2B2" stroke-opacity="0.06"/>
</svg>
