<svg width="40" height="40" viewBox="0 0 40 40" fill="none" xmlns="http://www.w3.org/2000/svg">
<rect width="40" height="40" rx="2" fill="#2E2E2E"/>
<path fill-rule="evenodd" clip-rule="evenodd" d="M27.4693 5.06219L29.2578 6.0948L23.3025 16.4096C24.2877 17.3177 24.9049 18.619 24.9049 20.0645C24.9049 21.51 24.2877 22.8114 23.3025 23.7194L29.2578 34.0343L27.4693 35.0669L21.5265 24.7738C21.027 24.9425 20.4919 25.034 19.9355 25.034C19.4192 25.034 18.9212 24.9552 18.4531 24.8091L12.5307 35.0669L10.7422 34.0343L16.6533 23.7959C15.6188 22.8853 14.966 21.5511 14.966 20.0645C14.966 18.5779 15.6188 17.2438 16.6533 16.3331L10.7422 6.0948L12.5307 5.06219L18.4531 15.32C18.9212 15.1738 19.4192 15.0951 19.9355 15.0951C20.4919 15.0951 21.027 15.1866 21.5265 15.3553L27.4693 5.06219ZM20.9035 31.1005H19.0965V34.4565H20.9035V31.1005ZM19.0965 5.54348H20.9035V8.89946H19.0965V5.54348ZM22.8397 20.0645C22.8397 21.6685 21.5394 22.9688 19.9355 22.9688C18.3315 22.9688 17.0312 21.6685 17.0312 20.0645C17.0312 18.4606 18.3315 17.1603 19.9355 17.1603C21.5394 17.1603 22.8397 18.4606 22.8397 20.0645Z" fill="#B2B2B2"/>
<rect x="0.5" y="0.5" width="39" height="39" rx="1.5" stroke="#B2B2B2" stroke-opacity="0.06"/>
</svg>
