<svg width="40" height="40" viewBox="0 0 40 40" fill="none" xmlns="http://www.w3.org/2000/svg">
<rect width="40" height="40" rx="2" fill="#2E2E2E"/>
<path fill-rule="evenodd" clip-rule="evenodd" d="M19.9585 5.40529L30.6123 14.5705L29.2654 16.1361L19.9638 8.1341L10.7376 16.1334L9.3847 14.5731L19.9585 5.40529Z" fill="#B2B2B2"/>
<path fill-rule="evenodd" clip-rule="evenodd" d="M8.6413 15.3533C7.78586 15.3533 7.09239 16.0467 7.09239 16.9022C7.09239 17.7576 7.78586 18.4511 8.6413 18.4511C9.49675 18.4511 10.1902 17.7576 10.1902 16.9022C10.1902 16.0467 9.49675 15.3533 8.6413 15.3533ZM5.02717 16.9022C5.02717 14.9061 6.64528 13.288 8.6413 13.288C10.6373 13.288 12.2554 14.9061 12.2554 16.9022C12.2554 18.8982 10.6373 20.5163 8.6413 20.5163C6.64528 20.5163 5.02717 18.8982 5.02717 16.9022Z" fill="#B2B2B2"/>
<path fill-rule="evenodd" clip-rule="evenodd" d="M31.3587 15.3533C30.5033 15.3533 29.8098 16.0467 29.8098 16.9022C29.8098 17.7576 30.5033 18.4511 31.3587 18.4511C32.2141 18.4511 32.9076 17.7576 32.9076 16.9022C32.9076 16.0467 32.2141 15.3533 31.3587 15.3533ZM27.7446 16.9022C27.7446 14.9061 29.3627 13.288 31.3587 13.288C33.3547 13.288 34.9728 14.9061 34.9728 16.9022C34.9728 18.8982 33.3547 20.5163 31.3587 20.5163C29.3627 20.5163 27.7446 18.8982 27.7446 16.9022Z" fill="#B2B2B2"/>
<path fill-rule="evenodd" clip-rule="evenodd" d="M19.9585 17.6675L30.6123 26.8327L29.2654 28.3983L19.9638 20.3963L10.7376 28.3957L9.3847 26.8353L19.9585 17.6675Z" fill="#B2B2B2"/>
<path fill-rule="evenodd" clip-rule="evenodd" d="M8.6413 27.6155C7.78586 27.6155 7.09239 28.309 7.09239 29.1644C7.09239 30.0198 7.78586 30.7133 8.6413 30.7133C9.49675 30.7133 10.1902 30.0198 10.1902 29.1644C10.1902 28.309 9.49675 27.6155 8.6413 27.6155ZM5.02717 29.1644C5.02717 27.1684 6.64528 25.5503 8.6413 25.5503C10.6373 25.5503 12.2554 27.1684 12.2554 29.1644C12.2554 31.1604 10.6373 32.7785 8.6413 32.7785C6.64528 32.7785 5.02717 31.1604 5.02717 29.1644Z" fill="#B2B2B2"/>
<path fill-rule="evenodd" clip-rule="evenodd" d="M31.3587 27.6155C30.5033 27.6155 29.8098 28.309 29.8098 29.1644C29.8098 30.0198 30.5033 30.7133 31.3587 30.7133C32.2141 30.7133 32.9076 30.0198 32.9076 29.1644C32.9076 28.309 32.2141 27.6155 31.3587 27.6155ZM27.7446 29.1644C27.7446 27.1684 29.3627 25.5503 31.3587 25.5503C33.3547 25.5503 34.9728 27.1684 34.9728 29.1644C34.9728 31.1604 33.3547 32.7785 31.3587 32.7785C29.3627 32.7785 27.7446 31.1604 27.7446 29.1644Z" fill="#B2B2B2"/>
<rect x="0.5" y="0.5" width="39" height="39" rx="1.5" stroke="#B2B2B2" stroke-opacity="0.06"/>
</svg>
