<svg width="40" height="40" viewBox="0 0 40 40" fill="none" xmlns="http://www.w3.org/2000/svg">
<rect width="40" height="40" rx="2" fill="#2E2E2E"/>
<path d="M18.9674 5.54348H21.0326V23.1624H18.9674V5.54348Z" fill="#B2B2B2"/>
<path d="M28.2609 15.8696L28.2609 17.9348L11.7391 17.9348L11.7391 15.8696L28.2609 15.8696Z" fill="#B2B2B2"/>
<path d="M26.1957 9.67391L26.1957 11.7391L13.8043 11.7391L13.8043 9.67391L26.1957 9.67391Z" fill="#B2B2B2"/>
<path fill-rule="evenodd" clip-rule="evenodd" d="M11.2837 25.7402C13.5954 23.4285 16.7307 22.1298 20 22.1298C23.2693 22.1298 26.4046 23.4285 28.7163 25.7402C31.0281 28.0519 32.3268 31.1873 32.3268 34.4565H30.2616C30.2616 31.735 29.1804 29.1249 27.256 27.2005C25.3316 25.2761 22.7215 24.195 20 24.195C17.2785 24.195 14.6684 25.2761 12.744 27.2005C10.8196 29.1249 9.73845 31.735 9.73845 34.4565H7.67323C7.67323 31.1873 8.97194 28.0519 11.2837 25.7402Z" fill="#B2B2B2"/>
<rect x="0.5" y="0.5" width="39" height="39" rx="1.5" stroke="#B2B2B2" stroke-opacity="0.06"/>
</svg>
