<svg width="40" height="40" viewBox="0 0 40 40" fill="none" xmlns="http://www.w3.org/2000/svg">
<rect width="40" height="40" rx="2" fill="#2E2E2E"/>
<path fill-rule="evenodd" clip-rule="evenodd" d="M31.5523 20.0645C31.5523 26.4091 26.4091 31.5523 20.0645 31.5523C17.2147 31.5523 14.6072 30.5146 12.5993 28.7964L28.7964 12.5993C30.5146 14.6072 31.5523 17.2147 31.5523 20.0645ZM30.2604 11.1353C32.3506 13.52 33.6175 16.6443 33.6175 20.0645C33.6175 27.5496 27.5496 33.6175 20.0645 33.6175C16.6443 33.6175 13.52 32.3506 11.1353 30.2604L8.2432 33.1525L6.78287 31.6922L9.68964 28.7854C7.70637 26.4284 6.51155 23.386 6.51155 20.0645C6.51155 12.5794 12.5794 6.51154 20.0645 6.51154C23.386 6.51154 26.4284 7.70636 28.7854 9.68963L31.6276 6.84745L33.0879 8.30778L30.2604 11.1353ZM11.1564 27.3186L27.3186 11.1564C25.3407 9.54376 22.8155 8.57676 20.0645 8.57676C13.72 8.57676 8.57677 13.72 8.57677 20.0645C8.57677 22.8155 9.54376 25.3407 11.1564 27.3186Z" fill="#B2B2B2"/>
<rect x="0.5" y="0.5" width="39" height="39" rx="1.5" stroke="#B2B2B2" stroke-opacity="0.06"/>
</svg>
