<svg width="40" height="40" viewBox="0 0 40 40" fill="none" xmlns="http://www.w3.org/2000/svg">
<rect width="40" height="40" rx="2" fill="#2E2E2E"/>
<path fill-rule="evenodd" clip-rule="evenodd" d="M11.1003 17.9413C9.57269 20.9204 8.60563 24.6608 7.91035 29.3352L9.9531 29.639C10.5879 25.3711 11.4332 22.0708 12.6435 19.4845L11.1003 17.9413ZM19.5567 12.4575C22.0538 11.2618 25.224 10.4457 29.3116 9.85699L29.0172 7.81287C24.5233 8.46014 20.9116 9.39975 18.0183 10.9191L19.5567 12.4575Z" fill="#B2B2B2"/>
<path d="M13.8689 8.6413H15.9341V21.0326H13.8689V8.6413Z" fill="#B2B2B2"/>
<path d="M21.0326 13.8689V15.9341L8.6413 15.9341L8.64131 13.8689L21.0326 13.8689Z" fill="#B2B2B2"/>
<path fill-rule="evenodd" clip-rule="evenodd" d="M8.125 30.3261C7.26956 30.3261 6.57609 31.0196 6.57609 31.875C6.57609 32.7304 7.26956 33.4239 8.125 33.4239C8.98044 33.4239 9.67391 32.7304 9.67391 31.875C9.67391 31.0196 8.98044 30.3261 8.125 30.3261ZM4.51087 31.875C4.51087 29.879 6.12897 28.2609 8.125 28.2609C10.121 28.2609 11.7391 29.879 11.7391 31.875C11.7391 33.871 10.121 35.4891 8.125 35.4891C6.12897 35.4891 4.51087 33.871 4.51087 31.875Z" fill="#B2B2B2"/>
<path fill-rule="evenodd" clip-rule="evenodd" d="M31.875 6.57609C31.0196 6.57609 30.3261 7.26956 30.3261 8.125C30.3261 8.98044 31.0196 9.67391 31.875 9.67391C32.7304 9.67391 33.4239 8.98044 33.4239 8.125C33.4239 7.26956 32.7304 6.57609 31.875 6.57609ZM28.2609 8.125C28.2609 6.12897 29.879 4.51087 31.875 4.51087C33.871 4.51087 35.4891 6.12897 35.4891 8.125C35.4891 10.121 33.871 11.7391 31.875 11.7391C29.879 11.7391 28.2609 10.121 28.2609 8.125Z" fill="#B2B2B2"/>
<rect x="0.5" y="0.5" width="39" height="39" rx="1.5" stroke="#B2B2B2" stroke-opacity="0.06"/>
</svg>
