<svg width="40" height="40" viewBox="0 0 40 40" fill="none" xmlns="http://www.w3.org/2000/svg">
<rect width="40" height="40" rx="2" fill="#2E2E2E"/>
<path d="M14.7281 13.2033L11.9852 10.4604L10.5249 11.9207L13.2678 14.6636L14.7281 13.2033Z" fill="#B2B2B2"/>
<path d="M17.0433 18.4391L20.0281 21.424L21.4885 19.9636L18.5036 16.9788L17.0433 18.4391Z" fill="#B2B2B2"/>
<path d="M26.8451 5.80573L5.87023 26.7806L4.4099 25.3203L25.3848 4.3454L26.8451 5.80573Z" fill="#B2B2B2"/>
<path d="M35.1305 13.8593C32.6207 12.0384 29.5336 10.9647 26.1957 10.9647C17.7838 10.9647 10.9647 17.7838 10.9647 26.1957C10.9647 29.5336 12.0384 32.6207 13.8593 35.1305L15.3411 33.6487C13.8832 31.5296 13.0299 28.9623 13.0299 26.1957C13.0299 18.9244 18.9244 13.0299 26.1957 13.0299C28.9623 13.0299 31.5296 13.8832 33.6487 15.3411L35.1305 13.8593Z" fill="#B2B2B2"/>
<rect x="0.5" y="0.5" width="39" height="39" rx="1.5" stroke="#B2B2B2" stroke-opacity="0.06"/>
</svg>
