<svg width="40" height="40" viewBox="0 0 40 40" fill="none" xmlns="http://www.w3.org/2000/svg">
<rect width="40" height="40" rx="2" fill="#2E2E2E"/>
<path fill-rule="evenodd" clip-rule="evenodd" d="M20 33.8111C23.4218 33.8111 26.1957 31.0373 26.1957 27.6155C26.1957 24.1937 23.4218 21.4198 20 21.4198C16.5782 21.4198 13.8043 24.1937 13.8043 27.6155C13.8043 31.0373 16.5782 33.8111 20 33.8111ZM20 35.8764C24.5624 35.8764 28.2609 32.1778 28.2609 27.6155C28.2609 23.0531 24.5624 19.3546 20 19.3546C15.4376 19.3546 11.7391 23.0531 11.7391 27.6155C11.7391 32.1778 15.4376 35.8764 20 35.8764Z" fill="#B2B2B2"/>
<rect x="23.6508" y="5.91807" width="2.06522" height="12.3913" transform="rotate(45 23.6508 5.91807)" fill="#B2B2B2"/>
<rect x="25.1112" y="14.68" width="2.06522" height="12.3913" transform="rotate(135 25.1112 14.68)" fill="#B2B2B2"/>
<rect x="18.9674" y="4.57541" width="2.06522" height="15.4246" fill="#B2B2B2"/>
<rect x="0.5" y="0.5" width="39" height="39" rx="1.5" stroke="#B2B2B2" stroke-opacity="0.06"/>
</svg>
