<svg width="40" height="40" viewBox="0 0 40 40" fill="none" xmlns="http://www.w3.org/2000/svg">
<rect width="40" height="40" rx="2" fill="#2E2E2E"/>
<path d="M21.0326 34.4565L18.9674 34.4565L18.9674 22.0652L21.0326 22.0652L21.0326 34.4565Z" fill="#B2B2B2"/>
<path d="M13.8043 29.7452L13.8043 27.68L26.1956 27.68L26.1956 29.7452L13.8043 29.7452Z" fill="#B2B2B2"/>
<path fill-rule="evenodd" clip-rule="evenodd" d="M28.7163 19.4874C26.4046 21.7991 23.2693 23.0978 20 23.0978C16.7307 23.0978 13.5954 21.7991 11.2837 19.4874C8.97194 17.1757 7.67323 14.0403 7.67323 10.7711L9.73845 10.7711C9.73845 13.4926 10.8196 16.1027 12.744 18.0271C14.6684 19.9515 17.2785 21.0326 20 21.0326C22.7215 21.0326 25.3316 19.9515 27.256 18.0271C29.1804 16.1027 30.2615 13.4926 30.2615 10.7711L32.3268 10.7711C32.3268 14.0403 31.0281 17.1757 28.7163 19.4874Z" fill="#B2B2B2"/>
<path fill-rule="evenodd" clip-rule="evenodd" d="M31.2942 6.57609C30.4387 6.57609 29.7452 7.26956 29.7452 8.125C29.7452 8.98044 30.4387 9.67391 31.2942 9.67391C32.1496 9.67391 32.8431 8.98044 32.8431 8.125C32.8431 7.26956 32.1496 6.57609 31.2942 6.57609ZM27.68 8.125C27.68 6.12897 29.2981 4.51087 31.2942 4.51087C33.2902 4.51087 34.9083 6.12897 34.9083 8.125C34.9083 10.121 33.2902 11.7391 31.2942 11.7391C29.2981 11.7391 27.68 10.121 27.68 8.125Z" fill="#B2B2B2"/>
<path fill-rule="evenodd" clip-rule="evenodd" d="M8.70584 6.57609C7.85039 6.57609 7.15692 7.26956 7.15692 8.125C7.15692 8.98044 7.85039 9.67391 8.70584 9.67391C9.56128 9.67391 10.2547 8.98044 10.2547 8.125C10.2547 7.26956 9.56128 6.57609 8.70584 6.57609ZM5.0917 8.125C5.0917 6.12897 6.70981 4.51087 8.70584 4.51087C10.7019 4.51087 12.32 6.12897 12.32 8.125C12.32 10.121 10.7019 11.7391 8.70584 11.7391C6.70981 11.7391 5.0917 10.121 5.0917 8.125Z" fill="#B2B2B2"/>
<rect x="0.5" y="0.5" width="39" height="39" rx="1.5" stroke="#B2B2B2" stroke-opacity="0.06"/>
</svg>
