<svg width="40" height="40" viewBox="0 0 40 40" fill="none" xmlns="http://www.w3.org/2000/svg">
<rect width="40" height="40" rx="2" fill="#2E2E2E"/>
<path d="M6.03954 32.5002L30.2736 8.26612L31.7339 9.72645L7.49987 33.9605L6.03954 32.5002Z" fill="#B2B2B2"/>
<path d="M13.4374 11.9771L28.023 26.5626L26.5626 28.023L11.9771 13.4374L13.4374 11.9771Z" fill="#B2B2B2"/>
<path d="M26.6105 4.62754L35.3725 13.3895L33.9122 14.8498L25.1502 6.08787L26.6105 4.62754Z" fill="#B2B2B2"/>
<path d="M24.7509 10.7997L29.2231 15.272L27.7628 16.7323L23.2905 12.26L24.7509 10.7997Z" fill="#B2B2B2"/>
<path d="M21.8302 13.7204L26.3025 18.1926L24.8421 19.653L20.3699 15.1807L21.8302 13.7204Z" fill="#B2B2B2"/>
<rect x="0.5" y="0.5" width="39" height="39" rx="1.5" stroke="#B2B2B2" stroke-opacity="0.06"/>
</svg>
