<svg width="40" height="40" viewBox="0 0 40 40" fill="none" xmlns="http://www.w3.org/2000/svg">
<rect width="40" height="40" rx="2" fill="#2E2E2E"/>
<path fill-rule="evenodd" clip-rule="evenodd" d="M19.965 10.0773C17.4728 9.55445 14.8815 9.78242 12.5188 10.7323L11.7484 8.8162C14.4901 7.71391 17.497 7.44937 20.389 8.05603C23.2811 8.6627 25.9282 10.1133 27.9958 12.2245C30.0634 14.3356 31.4585 17.0125 32.0047 19.9165C32.551 22.8205 32.2238 25.8213 31.0646 28.5394L29.1649 27.7293C30.1639 25.3869 30.4459 22.8009 29.9751 20.2983C29.5044 17.7956 28.3021 15.4888 26.5203 13.6695C24.7386 11.8502 22.4573 10.6001 19.965 10.0773Z" fill="#B2B2B2"/>
<path fill-rule="evenodd" clip-rule="evenodd" d="M17.3217 28.9708C20.7969 28.9708 23.6141 26.1536 23.6141 22.6783C23.6141 19.2031 20.7969 16.3859 17.3217 16.3859C13.8464 16.3859 11.0292 19.2031 11.0292 22.6783C11.0292 26.1536 13.8464 28.9708 17.3217 28.9708ZM17.3217 31.036C21.9375 31.036 25.6793 27.2941 25.6793 22.6783C25.6793 18.0625 21.9375 14.3207 17.3217 14.3207C12.7059 14.3207 8.96399 18.0625 8.96399 22.6783C8.96399 27.2941 12.7059 31.036 17.3217 31.036Z" fill="#B2B2B2"/>
<path d="M4.34952 34.1016L11.6101 26.841L13.0704 28.3014L5.80985 35.5619L4.34952 34.1016Z" fill="#B2B2B2"/>
<path d="M26.0827 12.3684L33.9079 4.54314L35.3683 6.00347L27.543 13.8287L26.0827 12.3684Z" fill="#B2B2B2"/>
<rect x="0.5" y="0.5" width="39" height="39" rx="1.5" stroke="#B2B2B2" stroke-opacity="0.06"/>
</svg>
