<svg width="40" height="40" viewBox="0 0 40 40" fill="none" xmlns="http://www.w3.org/2000/svg">
<rect width="40" height="40" rx="2" fill="#2E2E2E"/>
<path fill-rule="evenodd" clip-rule="evenodd" d="M23.8882 21.1111C23.2721 21.4282 22.613 21.6736 21.922 21.836L28.4353 33.1174H11.5001L18.0058 21.8492C17.3127 21.6912 16.6512 21.45 16.0326 21.1365L7.92307 35.1826H32.0123L23.8882 21.1111Z" fill="#B2B2B2"/>
<path fill-rule="evenodd" clip-rule="evenodd" d="M19.9355 20C23.5711 20 26.5183 17.0527 26.5183 13.4171C26.5183 9.78149 23.5711 6.83424 19.9355 6.83424C16.2998 6.83424 13.3526 9.78149 13.3526 13.4171C13.3526 17.0527 16.2998 20 19.9355 20ZM19.9355 22.0652C24.7117 22.0652 28.5836 18.1933 28.5836 13.4171C28.5836 8.64091 24.7117 4.76902 19.9355 4.76902C15.1593 4.76902 11.2874 8.64091 11.2874 13.4171C11.2874 18.1933 15.1593 22.0652 19.9355 22.0652Z" fill="#B2B2B2"/>
<rect x="18.7092" y="12.3845" width="2.51698" height="2.51698" fill="#B2B2B2"/>
<rect x="0.5" y="0.5" width="39" height="39" rx="1.5" stroke="#B2B2B2" stroke-opacity="0.06"/>
</svg>
