<svg width="23" height="23" viewBox="0 0 23 23" fill="none" xmlns="http://www.w3.org/2000/svg">
<g clip-path="url(#clip0_1321_1888)">
<path fill-rule="evenodd" clip-rule="evenodd" d="M11.4291 18.7313C15.4229 18.7313 18.6604 15.4938 18.6604 11.5C18.6604 7.50624 15.4229 4.26866 11.4291 4.26866C7.43534 4.26866 4.19776 7.50624 4.19776 11.5C4.19776 15.4938 7.43534 18.7313 11.4291 18.7313ZM11.4291 21C16.6758 21 20.9291 16.7467 20.9291 11.5C20.9291 6.25329 16.6758 2 11.4291 2C6.1824 2 1.9291 6.25329 1.9291 11.5C1.9291 16.7467 6.1824 21 11.4291 21Z" fill="#298EE0"/>
<rect x="10.0821" y="10.3657" width="2.76493" height="2.76493" fill="#298EE0"/>
</g>
<defs>
<clipPath id="clip0_1321_1888">
<rect width="19" height="19" fill="white" transform="translate(2 2)"/>
</clipPath>
</defs>
</svg>
