<svg width="40" height="40" viewBox="0 0 40 40" fill="none" xmlns="http://www.w3.org/2000/svg">
<rect width="40" height="40" rx="2" fill="#2E2E2E"/>
<path fill-rule="evenodd" clip-rule="evenodd" d="M25.8076 15.6527L33.3474 8.11296L31.887 6.65263L24.3473 14.1924C23.1527 13.3001 21.6703 12.7717 20.0645 12.7717C18.4257 12.7717 16.9154 13.3221 15.7083 14.248L8.11297 6.65263L6.65265 8.11296L14.2667 15.727C13.4076 16.9085 12.9008 18.3628 12.9008 19.9355C12.9008 21.5412 13.4291 23.0236 14.3214 24.2182L6.65263 31.887L8.11296 33.3474L15.7818 25.6785C16.9764 26.5709 18.4588 27.0992 20.0645 27.0992C21.6372 27.0992 23.0915 26.5924 24.273 25.7333L31.887 33.3474L33.3474 31.887L25.752 24.2917C26.6779 23.0846 27.2283 21.5743 27.2283 19.9355C27.2283 18.3297 26.6999 16.8473 25.8076 15.6527ZM25.163 19.9355C25.163 22.7513 22.8804 25.034 20.0645 25.034C17.2487 25.034 14.966 22.7513 14.966 19.9355C14.966 17.1196 17.2487 14.837 20.0645 14.837C22.8804 14.837 25.163 17.1196 25.163 19.9355Z" fill="#B2B2B2"/>
<rect x="18.5156" y="18.6447" width="2.83967" height="2.83967" fill="#B2B2B2"/>
<rect x="0.5" y="0.5" width="39" height="39" rx="1.5" stroke="#B2B2B2" stroke-opacity="0.06"/>
</svg>
