<svg width="40" height="40" viewBox="0 0 40 40" fill="none" xmlns="http://www.w3.org/2000/svg">
<rect width="40" height="40" rx="2" fill="#2E2E2E"/>
<g clip-path="url(#clip0_1318_1848)">
<path fill-rule="evenodd" clip-rule="evenodd" d="M14.499 29.5429C16.2456 30.0949 18.1051 30.3926 20.0342 30.3926C27.3292 30.3926 33.6298 26.1348 36.5863 19.9687C35.2815 17.2475 33.3254 14.8979 30.9199 13.1219L29.4411 14.6008C31.4202 16.0041 33.0727 17.8387 34.2614 19.9687C31.4766 24.9587 26.147 28.3274 20.0342 28.3274C18.7046 28.3274 17.412 28.168 16.1746 27.8672L14.499 29.5429ZM27.633 13.4882C25.364 12.2888 22.778 11.6101 20.0342 11.6101C13.9214 11.6101 8.59178 14.9788 5.80694 19.9687C7.61433 23.2073 10.4936 25.7629 13.9632 27.158L12.3914 28.7298C8.49518 26.9419 5.33316 23.8294 3.48204 19.9687C6.43859 13.8026 12.7391 9.54483 20.0342 9.54483C23.3535 9.54483 26.4669 10.4263 29.1531 11.9681L27.633 13.4882Z" fill="#B2B2B2"/>
<path fill-rule="evenodd" clip-rule="evenodd" d="M20.0645 25.034C22.8804 25.034 25.163 22.7513 25.163 19.9355C25.163 17.1196 22.8804 14.837 20.0645 14.837C17.2487 14.837 14.966 17.1196 14.966 19.9355C14.966 22.7513 17.2487 25.034 20.0645 25.034ZM20.0645 27.0992C24.021 27.0992 27.2283 23.8919 27.2283 19.9355C27.2283 15.979 24.021 12.7717 20.0645 12.7717C16.1081 12.7717 12.9008 15.979 12.9008 19.9355C12.9008 23.8919 16.1081 27.0992 20.0645 27.0992Z" fill="#B2B2B2"/>
<path d="M6.65263 31.887L31.887 6.65265L33.3474 8.11298L8.11296 33.3474L6.65263 31.887Z" fill="#B2B2B2"/>
</g>
<rect x="0.5" y="0.5" width="39" height="39" rx="1.5" stroke="#B2B2B2" stroke-opacity="0.06"/>
<defs>
<clipPath id="clip0_1318_1848">
<rect width="33.0435" height="33.0435" fill="white" transform="translate(3.47826 3.47826)"/>
</clipPath>
</defs>
</svg>
