<svg width="40" height="40" viewBox="0 0 40 40" fill="none" xmlns="http://www.w3.org/2000/svg">
<rect width="40" height="40" rx="2" fill="#2E2E2E"/>
<g clip-path="url(#clip0_1318_1848)">
<path d="M9.67391 18.9674L9.67391 21.0326L5.54348 21.0326L5.54348 18.9674L9.67391 18.9674Z" fill="#B2B2B2"/>
<path d="M34.4565 18.9674L34.4565 21.0326L30.3261 21.0326L30.3261 18.9674L34.4565 18.9674Z" fill="#B2B2B2"/>
<path d="M21.0326 26.1956L18.9674 26.1956L18.9674 13.8043L21.0326 13.8043L21.0326 26.1956Z" fill="#B2B2B2"/>
<path fill-rule="evenodd" clip-rule="evenodd" d="M11.7745 13.161C10.2652 11.1874 8.14538 9.76845 5.74543 9.12539L6.27995 7.13054C9.12014 7.89157 11.6288 9.57077 13.415 11.9065C15.2012 14.2421 16.1645 17.1031 16.155 20.0435C16.1454 22.9838 15.1634 25.8384 13.362 28.1624C11.5606 30.4864 9.041 32.1492 6.19589 32.8917L5.67441 30.8934C8.0785 30.266 10.2075 28.8609 11.7297 26.8972C13.2518 24.9334 14.0816 22.5213 14.0897 20.0367C14.0979 17.5521 13.2838 15.1346 11.7745 13.161Z" fill="#B2B2B2"/>
<path fill-rule="evenodd" clip-rule="evenodd" d="M28.24 13.161C29.7493 11.1874 31.8691 9.76848 34.2691 9.12542L33.7345 7.13057C30.8943 7.8916 28.3857 9.5708 26.5995 11.9065C24.8133 14.2422 23.8499 17.1031 23.8595 20.0435C23.8691 22.9839 24.8511 25.8385 26.6525 28.1625C28.4539 30.4864 30.9735 32.1492 33.8186 32.8917L34.3401 30.8934C31.936 30.266 29.807 28.861 28.2848 26.8972C26.7626 24.9335 25.9328 22.5214 25.9247 20.0368C25.9166 17.5522 26.7307 15.1347 28.24 13.161Z" fill="#B2B2B2"/>
</g>
<rect x="0.5" y="0.5" width="39" height="39" rx="1.5" stroke="#B2B2B2" stroke-opacity="0.06"/>
<defs>
<clipPath id="clip0_1318_1848">
<rect width="33.0435" height="33.0435" fill="white" transform="translate(3.47826 3.47826)"/>
</clipPath>
</defs>
</svg>
